<svg width="375" height="141" xmlns="http://www.w3.org/2000/svg">
 <rect x="0" y="0" width="375" height="141" fill="yellow" />
 <g transform="matrix(1,0,0,1,-114,-17)">
  <path d="M 300.999 105.335 L 301.338 105.508 L 301.664 105.335 L 325.448 50.561 L 327.518 47.285 L 330.231 45.087 L 333.343 43.888 L 334.784 43.598 L 336.767 43.252 L 339.243 42.858 L 342.158 42.422 L 345.462 41.948 L 349.103 41.442 L 353.030 40.911 L 357.191 40.360 L 361.536 39.795 L 366.012 39.222 L 370.569 38.647 L 375.154 38.075 L 379.717 37.512 L 384.206 36.964 L 388.569 36.437 L 392.756 35.936 L 396.714 35.468 L 400.393 35.038 L 403.742 34.652 L 406.707 34.316 L 409.239 34.035 L 411.286 33.815 L 412.796 33.663 L 415.239 32.055 L 416.965 29.111 L 419.302 26.438 L 422.352 25.055 L 423.510 24.841 L 425.358 24.554 L 427.817 24.204 L 430.809 23.801 L 434.257 23.354 L 438.081 22.871 L 442.205 22.363 L 446.549 21.838 L 451.036 21.306 L 455.589 20.776 L 460.127 20.257 L 464.575 19.758 L 468.853 19.290 L 472.883 18.860 L 476.588 18.479 L 479.889 18.155 L 482.708 17.898 L 484.968 17.717 L 485.089 17.717 L 485.250 17.717 L 487.688 19.198 L 487.471 22.055 L 486.303 23.771 L 484.792 25.974 L 482.983 28.603 L 480.918 31.597 L 478.641 34.892 L 476.196 38.428 L 473.625 42.141 L 470.971 45.971 L 468.279 49.855 L 465.591 53.732 L 462.950 57.539 L 460.401 61.215 L 457.985 64.697 L 455.747 67.924 L 453.729 70.833 L 451.976 73.364 L 450.530 75.453 L 449.434 77.039 L 448.732 78.060 L 448.467 78.454 L 446.120 79.833 L 445.332 79.928 L 443.272 80.173 L 440.174 80.539 L 436.268 80.999 L 431.789 81.527 L 426.966 82.094 L 422.034 82.675 L 417.223 83.240 L 412.766 83.764 L 408.896 84.219 L 405.844 84.577 L 403.842 84.812 L 403.123 84.897 L 400.676 86.502 L 399.114 89.141 L 397.350 92.122 L 395.643 94.453 L 393.650 95.820 L 391.233 96.444 L 390.501 96.531 L 388.747 96.739 L 386.108 97.053 L 382.723 97.457 L 378.730 97.933 L 374.265 98.466 L 369.466 99.038 L 364.471 99.634 L 359.418 100.237 L 354.443 100.831 L 349.686 101.399 L 345.283 101.924 L 341.372 102.391 L 338.090 102.783 L 335.576 103.083 L 333.967 103.275 L 333.400 103.343 L 330.224 104.279 L 327.633 106.218 L 325.831 109.004 L 305.224 156.512 L 303.386 157.677 L 301.353 157.677 L 299.277 157.677 L 297.499 156.512 L 297.180 155.760 L 296.399 153.950 L 295.230 151.248 L 293.743 147.816 L 292.010 143.821 L 290.103 139.425 L 288.093 134.794 L 286.051 130.092 L 284.049 125.484 L 282.159 121.133 L 280.452 117.205 L 279.000 113.864 L 277.875 111.273 L 277.147 109.599 L 276.888 109.004 L 275.089 106.219 L 272.501 104.281 L 269.336 103.343 L 268.769 103.275 L 267.160 103.083 L 264.645 102.783 L 261.364 102.392 L 257.452 101.925 L 253.049 101.400 L 248.291 100.832 L 243.316 100.239 L 238.262 99.636 L 233.267 99.040 L 228.467 98.468 L 224.000 97.935 L 220.005 97.459 L 216.618 97.055 L 213.978 96.740 L 212.221 96.531 L 211.486 96.444 L 209.080 95.820 L 207.090 94.453 L 205.386 92.122 L 203.607 89.140 L 202.043 86.502 L 199.596 84.897 L 198.877 84.813 L 196.876 84.578 L 193.823 84.219 L 189.953 83.765 L 185.496 83.241 L 180.685 82.676 L 175.752 82.096 L 170.930 81.529 L 166.449 81.001 L 162.544 80.540 L 159.445 80.174 L 157.385 79.929 L 156.595 79.833 L 154.265 78.454 L 153.998 78.059 L 153.295 77.038 L 152.198 75.452 L 150.752 73.362 L 148.998 70.832 L 146.980 67.922 L 144.742 64.695 L 142.327 61.213 L 139.778 57.538 L 137.138 53.731 L 134.451 49.854 L 131.760 45.970 L 129.107 42.140 L 126.537 38.427 L 124.092 34.892 L 121.816 31.596 L 119.752 28.603 L 117.943 25.974 L 116.433 23.771 L 115.264 22.055 L 115.045 19.197 L 117.494 17.717 L 117.659 17.717 L 117.768 17.717 L 120.027 17.898 L 122.847 18.155 L 126.148 18.479 L 129.852 18.860 L 133.883 19.290 L 138.161 19.758 L 142.608 20.257 L 147.147 20.776 L 151.699 21.306 L 156.186 21.838 L 160.530 22.363 L 164.653 22.871 L 168.477 23.354 L 171.925 23.801 L 174.916 24.204 L 177.375 24.554 L 179.222 24.841 L 180.380 25.055 L 183.429 26.438 L 185.771 29.111 L 187.492 32.055 L 189.940 33.663 L 191.450 33.815 L 193.497 34.035 L 196.029 34.316 L 198.994 34.652 L 202.342 35.038 L 206.021 35.468 L 209.980 35.936 L 214.167 36.437 L 218.530 36.964 L 223.019 37.512 L 227.582 38.075 L 232.167 38.647 L 236.723 39.222 L 241.200 39.795 L 245.544 40.360 L 249.706 40.911 L 253.633 41.442 L 257.274 41.948 L 260.578 42.422 L 263.493 42.858 L 265.968 43.252 L 267.952 43.598 L 269.393 43.888 L 272.495 45.085 L 275.203 47.284 L 277.271 50.561 L 300.999 105.335 Z" fill="#78787a"/>

  <path d="M 298.725 154.508 L 298.148 153.178 L 296.703 149.847 L 294.820 145.504 L 292.929 141.137 L 291.460 137.736 L 290.842 136.288 L 290.842 135.062 L 291.004 134.681 L 291.463 133.617 L 292.194 131.926 L 293.172 129.666 L 294.373 126.894 L 295.771 123.666 L 297.343 120.040 L 299.063 116.072 L 300.907 111.820 L 302.850 107.341 L 304.866 102.691 L 306.932 97.929 L 309.023 93.109 L 311.113 88.291 L 313.179 83.531 L 315.194 78.885 L 317.135 74.411 L 318.977 70.166 L 320.695 66.207 L 322.265 62.591 L 323.660 59.374 L 324.858 56.615 L 325.832 54.369 L 326.559 52.695 L 327.013 51.648 L 327.170 51.287 L 328.786 48.717 L 331.019 46.859 L 333.783 45.779 L 335.177 45.496 L 337.107 45.158 L 339.523 44.771 L 342.375 44.341 L 345.614 43.873 L 349.188 43.373 L 353.048 42.848 L 357.145 42.302 L 361.428 41.742 L 365.846 41.174 L 370.352 40.602 L 374.893 40.033 L 379.421 39.473 L 383.885 38.927 L 388.235 38.402 L 392.422 37.902 L 396.396 37.433 L 400.106 37.003 L 403.502 36.615 L 406.535 36.276 L 409.154 35.992 L 411.310 35.768 L 412.953 35.611 L 415.847 34.301 L 416.905 32.994 L 418.626 29.990 L 420.513 27.926 L 422.739 26.950 L 423.912 26.727 L 425.768 26.433 L 428.229 26.078 L 431.217 25.672 L 434.655 25.223 L 438.465 24.741 L 442.570 24.234 L 446.892 23.712 L 451.352 23.183 L 455.875 22.658 L 460.382 22.145 L 464.795 21.654 L 469.037 21.193 L 473.031 20.771 L 476.699 20.399 L 479.962 20.084 L 482.745 19.836 L 484.968 19.665 L 485.846 20.052 L 485.806 21.060 L 484.779 22.572 L 483.378 24.619 L 481.650 27.132 L 479.641 30.047 L 477.397 33.296 L 474.964 36.815 L 472.388 40.537 L 469.715 44.396 L 466.991 48.326 L 464.262 52.261 L 461.575 56.134 L 458.975 59.880 L 456.508 63.433 L 454.221 66.727 L 452.159 69.695 L 450.369 72.271 L 448.897 74.390 L 447.788 75.986 L 447.089 76.991 L 446.846 77.341 L 445.850 77.954 L 445.127 78.038 L 443.114 78.274 L 440.045 78.635 L 436.154 79.093 L 431.676 79.619 L 426.847 80.187 L 421.900 80.769 L 417.070 81.338 L 412.592 81.865 L 408.701 82.322 L 405.631 82.684 L 403.617 82.921 L 402.894 83.006 L 400.552 83.876 L 398.955 85.623 L 395.741 91.166 L 393.516 93.693 L 391.004 94.513 L 333.113 101.392 L 330.248 102.140 L 327.714 103.580 L 325.615 105.634 L 324.053 108.221 L 323.810 108.788 L 323.178 110.248 L 322.211 112.478 L 320.963 115.356 L 319.487 118.757 L 317.836 122.559 L 316.065 126.639 L 314.225 130.874 L 312.371 135.140 L 310.557 139.315 L 308.835 143.275 L 307.259 146.897 L 305.883 150.059 L 304.759 152.637 L 303.942 154.508 L 302.164 155.730 L 300.555 155.730 L 298.725 154.508 Z" fill="#c7c9c9"/>

  <path d="M 290.274 131.506 L 289.504 132.006 L 288.722 131.450 L 288.297 130.468 L 287.174 127.876 L 285.585 124.205 L 283.757 119.985 L 281.922 115.746 L 280.309 112.019 L 279.147 109.334 L 278.666 108.221 L 277.112 105.634 L 275.009 103.581 L 272.455 102.141 L 269.550 101.396 L 211.716 94.509 L 209.212 93.691 L 207.047 91.171 L 203.765 85.619 L 202.171 83.875 L 199.822 83.006 L 199.099 82.920 L 197.087 82.683 L 194.019 82.321 L 190.129 81.864 L 185.654 81.337 L 180.826 80.769 L 175.881 80.188 L 171.053 79.620 L 166.577 79.094 L 162.687 78.636 L 159.618 78.276 L 157.605 78.039 L 156.882 77.954 L 155.870 77.341 L 155.627 76.991 L 154.928 75.986 L 153.820 74.391 L 152.348 72.272 L 150.559 69.695 L 148.499 66.727 L 146.213 63.434 L 143.747 59.881 L 141.149 56.135 L 138.463 52.262 L 135.736 48.328 L 133.013 44.398 L 130.341 40.539 L 127.766 36.817 L 125.334 33.298 L 123.090 30.048 L 121.082 27.133 L 119.354 24.619 L 117.953 22.573 L 116.925 21.060 L 116.869 20.052 L 117.768 19.665 L 119.989 19.836 L 122.771 20.084 L 126.035 20.399 L 129.705 20.771 L 133.701 21.193 L 137.946 21.654 L 142.363 22.145 L 146.873 22.658 L 151.398 23.183 L 155.862 23.712 L 160.186 24.234 L 164.292 24.741 L 168.102 25.223 L 171.539 25.672 L 174.525 26.078 L 176.982 26.433 L 178.832 26.727 L 179.997 26.950 L 182.213 27.926 L 184.105 29.994 L 185.827 32.990 L 186.880 34.302 L 189.766 35.611 L 191.409 35.768 L 193.565 35.991 L 196.185 36.275 L 199.219 36.613 L 202.616 37.001 L 206.326 37.432 L 210.300 37.900 L 214.488 38.400 L 218.839 38.925 L 223.304 39.471 L 227.832 40.032 L 232.374 40.601 L 236.880 41.172 L 241.299 41.741 L 245.582 42.301 L 249.678 42.847 L 253.538 43.373 L 257.112 43.872 L 260.350 44.340 L 263.201 44.771 L 265.616 45.158 L 267.545 45.496 L 268.937 45.779 L 271.700 46.859 L 273.918 48.717 L 275.493 51.287 L 275.708 51.781 L 276.320 53.188 L 277.278 55.395 L 278.535 58.288 L 280.040 61.754 L 281.744 65.680 L 283.599 69.951 L 285.554 74.454 L 287.562 79.076 L 289.571 83.703 L 291.534 88.222 L 293.401 92.518 L 295.123 96.480 L 296.650 99.992 L 297.933 102.942 L 298.924 105.216 L 299.573 106.701 L 299.830 107.282 L 299.773 109.560 L 299.217 110.882 L 297.848 114.059 L 295.994 118.340 L 293.982 122.975 L 292.140 127.214 L 290.795 130.308 L 290.274 131.506 Z" fill="#c7c9c9"/>

  <path d="M 289.165 122.615 L 289.504 122.902 L 289.830 122.676 L 295.568 109.447 L 295.564 107.226 L 295.286 106.587 L 294.560 104.915 L 293.448 102.355 L 292.017 99.057 L 290.329 95.168 L 288.449 90.837 L 286.441 86.211 L 284.370 81.438 L 282.300 76.666 L 280.294 72.043 L 278.417 67.717 L 276.734 63.836 L 275.308 60.549 L 274.205 58.002 L 273.487 56.343 L 273.219 55.722 L 271.027 53.567 L 269.336 52.948 L 267.068 52.577 L 264.394 52.166 L 261.357 51.719 L 257.999 51.242 L 254.362 50.739 L 250.487 50.215 L 246.418 49.675 L 242.195 49.123 L 237.862 48.566 L 233.459 48.006 L 229.030 47.450 L 224.616 46.901 L 220.259 46.366 L 216.002 45.848 L 211.886 45.353 L 207.954 44.885 L 204.247 44.449 L 200.807 44.050 L 197.678 43.693 L 194.900 43.383 L 192.515 43.124 L 190.567 42.921 L 189.097 42.779 L 184.819 42.279 L 183.698 41.994 L 181.658 40.163 L 180.616 38.330 L 178.827 35.284 L 176.384 33.607 L 174.514 33.341 L 172.162 33.027 L 169.387 32.669 L 166.247 32.276 L 162.800 31.853 L 159.106 31.408 L 155.223 30.946 L 151.208 30.476 L 147.121 30.002 L 143.021 29.533 L 138.965 29.074 L 135.012 28.633 L 131.221 28.216 L 127.650 27.829 L 127.041 28.938 L 128.155 30.524 L 129.700 32.737 L 131.605 35.476 L 133.803 38.640 L 136.223 42.128 L 138.796 45.841 L 141.454 49.677 L 144.126 53.537 L 146.743 57.318 L 149.236 60.922 L 151.536 64.248 L 153.573 67.194 L 155.278 69.660 L 156.582 71.546 L 157.415 72.752 L 157.708 73.176 L 159.769 74.398 L 200.265 79.176 L 203.010 79.926 L 205.337 81.432 L 207.047 83.558 L 207.963 85.107 L 209.708 88.110 L 211.761 90.107 L 214.046 90.896 L 214.915 90.997 L 216.870 91.228 L 219.754 91.569 L 223.411 92.003 L 227.681 92.510 L 232.407 93.072 L 237.431 93.669 L 242.597 94.284 L 247.745 94.896 L 252.718 95.488 L 257.359 96.041 L 261.510 96.535 L 265.013 96.952 L 267.711 97.274 L 269.445 97.480 L 270.058 97.553 L 273.177 98.252 L 276.025 99.573 L 278.531 101.457 L 280.621 103.844 L 282.222 106.673 L 283.009 108.499 L 284.738 112.473 L 286.768 117.129 L 288.458 120.999 L 289.165 122.615 Z" fill="#000"/>
  <path d="M 421.077 40.159 L 422.115 38.329 L 423.903 35.284 L 426.350 33.607 L 428.218 33.341 L 430.568 33.027 L 433.342 32.669 L 436.482 32.276 L 439.928 31.853 L 443.622 31.408 L 447.505 30.946 L 451.520 30.476 L 455.607 30.002 L 459.708 29.533 L 463.765 29.074 L 467.718 28.633 L 471.509 28.216 L 475.080 27.829 L 475.693 28.938 L 474.625 30.455 L 473.211 32.477 L 471.500 34.932 L 469.542 37.747 L 467.388 40.850 L 465.087 44.168 L 462.689 47.627 L 460.244 51.157 L 457.803 54.683 L 455.416 58.134 L 453.131 61.436 L 451.000 64.516 L 449.073 67.304 L 447.398 69.724 L 446.028 71.706 L 445.010 73.176 L 442.962 74.398 L 402.397 79.176 L 399.694 79.926 L 397.384 81.432 L 395.684 83.558 L 421.077 40.159 Z" fill="#b52105"/>

  <path d="M 150.100 58.339 L 170.324 60.556 L 161.704 46.775 L 140.484 44.445 L 150.100 58.339 Z" fill="#c7c9c9"/>
  <path d="M 178.876 74.398 L 200.491 76.942 L 199.262 74.829 L 197.611 71.989 L 195.637 68.592 L 193.440 64.812 L 191.119 60.818 L 188.774 56.781 L 186.504 52.874 L 184.410 49.268 L 182.589 46.133 L 181.142 43.641 L 180.168 41.964 L 179.767 41.272 L 176.880 36.337 L 175.985 35.780 L 173.978 35.492 L 171.429 35.155 L 168.412 34.777 L 164.998 34.362 L 161.260 33.915 L 157.269 33.442 L 153.100 32.950 L 161.704 46.775 L 183.097 49.162 L 191.109 62.834 L 170.324 60.556 L 178.876 74.398 Z" fill="#c7c9c9"/>
  <path d="M 276.622 69.160 L 248.330 65.834 L 255.612 80.115 L 282.779 83.333 L 281.483 80.346 L 280.200 77.404 L 278.950 74.537 L 277.751 71.779 L 276.622 69.160 Z" fill="#c7c9c9"/>
  <path d="M 262.889 94.453 L 255.612 80.115 L 228.388 76.942 L 235.670 91.223 L 239.462 91.684 L 243.259 92.143 L 247.002 92.593 L 250.634 93.027 L 254.097 93.437 L 257.332 93.816 L 260.282 94.157 L 262.889 94.453 Z" fill="#c7c9c9"/>
  <path d="M 240.887 51.170 L 237.609 50.749 L 234.253 50.321 L 230.838 49.889 L 227.384 49.455 L 223.908 49.024 L 220.432 48.597 L 216.973 48.178 L 213.550 47.771 L 221.102 62.605 L 248.330 65.834 L 240.887 51.170 Z" fill="#c7c9c9"/>
  <path d="M 204.104 74.055 L 202.250 73.406 L 200.435 71.838 L 193.096 59.334 L 221.102 62.605 L 228.388 76.942 L 204.104 74.055 Z" fill="#c7c9c9"/>

  <path d="M 395.459 83.998 L 394.356 85.788 L 392.951 88.110 L 390.963 90.107 L 388.673 90.896 L 387.807 90.997 L 385.854 91.228 L 382.972 91.569 L 379.317 92.003 L 375.049 92.510 L 370.323 93.072 L 365.299 93.669 L 360.135 94.284 L 354.987 94.896 L 350.013 95.488 L 345.372 96.041 L 341.221 96.535 L 337.718 96.952 L 335.021 97.274 L 333.286 97.480 L 332.673 97.553 L 329.551 98.252 L 326.702 99.573 L 324.196 101.457 L 322.104 103.844 L 320.497 106.673 L 320.170 107.421 L 319.327 109.363 L 318.060 112.281 L 316.465 115.956 L 314.636 120.170 L 312.669 124.706 L 310.657 129.345 L 308.695 133.869 L 306.877 138.060 L 305.299 141.699 L 304.055 144.568 L 303.239 146.450 L 302.946 147.126 L 301.337 148.065 L 299.729 147.069 L 299.050 145.500 L 297.541 142.025 L 295.999 138.487 L 295.221 136.727 L 295.277 134.566 L 295.449 134.162 L 295.921 133.070 L 296.666 131.349 L 297.657 129.060 L 298.870 126.262 L 300.278 123.015 L 301.856 119.379 L 303.576 115.414 L 305.413 111.180 L 307.342 106.736 L 309.335 102.144 L 311.367 97.462 L 313.413 92.751 L 315.445 88.070 L 317.439 83.479 L 319.367 79.039 L 321.204 74.809 L 322.924 70.849 L 324.501 67.219 L 325.909 63.978 L 327.121 61.188 L 328.113 58.907 L 328.857 57.196 L 329.328 56.114 L 329.500 55.722 L 331.642 53.588 L 333.399 52.948 L 335.659 52.577 L 338.325 52.166 L 341.355 51.719 L 344.706 51.242 L 348.338 50.739 L 352.207 50.215 L 356.273 49.675 L 360.492 49.123 L 364.822 48.566 L 369.223 48.006 L 373.650 47.450 L 378.064 46.901 L 382.420 46.366 L 386.678 45.848 L 390.795 45.353 L 394.730 44.885 L 398.439 44.449 L 401.882 44.050 L 405.015 43.693 L 407.798 43.383 L 410.187 43.124 L 412.141 42.921 L 413.618 42.779 L 417.904 42.279 L 419.031 41.994 L 421.073 40.163 L 395.459 83.998 L 395.459 83.998 Z" fill="#db240f"/>

  <path d="M 356.666 62.721 L 376.398 60.444 L 374.451 65.052 L 394.175 62.778 L 385.341 72.563 L 370.564 74.281 L 368.617 78.889 L 348.848 81.168 L 350.836 76.559 L 331.120 78.837 L 339.954 69.064 L 354.735 67.330 L 356.666 62.721 Z" fill="#ebb000"/>
  <path d="M 431.245 65.338 L 429.463 65.552 L 429.067 65.895 L 428.280 68.297 L 427.898 70.116 L 429.736 67.876 L 431.398 65.552 L 431.245 65.338 Z" fill="#ebb000"/>
  <path d="M 435.740 46.832 L 435.155 48.549 L 434.071 51.794 L 432.807 55.596 L 431.682 58.988 L 431.015 61.000 L 431.297 61.439 L 432.237 61.342 L 432.737 60.943 L 434.116 58.846 L 436.454 55.298 L 439.059 51.314 L 441.237 47.913 L 442.292 46.110 L 442.769 43.780 L 443.260 40.110 L 443.175 37.772 L 443.018 37.715 L 441.534 39.070 L 439.127 42.045 L 436.845 45.135 L 435.740 46.832 Z" fill="#ebb000"/>
  <path d="M 429.011 61.725 L 429.676 61.669 L 430.120 61.229 L 430.823 58.746 L 431.793 54.589 L 432.221 50.682 L 431.297 48.952 L 428.884 50.645 L 425.386 53.830 L 423.903 55.665 L 426.069 54.641 L 428.398 53.617 L 428.624 55.189 L 428.721 58.489 L 428.681 61.399 L 429.011 61.725 Z" fill="#ebb000"/>
  <path d="M 447.517 47.727 L 448.769 50.736 L 449.179 53.004 L 449.022 53.065 L 446.022 51.287 L 444.066 52.538 L 441.518 54.567 L 438.722 57.275 L 436.023 60.560 L 435.410 60.943 L 434.184 61.112 L 434.015 60.673 L 435.699 58.113 L 437.603 55.406 L 439.679 52.755 L 441.879 50.364 L 444.156 48.436 L 446.461 47.174 L 447.517 47.727 Z" fill="#ebb000"/>
  <path d="M 435.357 62.504 L 434.954 61.782 L 428.298 62.560 L 427.515 63.221 L 427.132 64.342 L 427.515 65.056 L 434.245 64.225 L 434.898 63.560 L 435.357 62.504 Z" fill="#ebb000"/>
</g>
</svg>