<?xml version="1.0" encoding="UTF-8" standalone="no"?>
<!-- Created with Inkscape (http://www.inkscape.org/) -->
<svg xmlns="http://www.w3.org/2000/svg" width="602" height="232">
    <g transform="matrix(3.543307e-5,0,0,3.543307e-5,6.380603e-4,3.525516e-4)">
   <path
   d="M 8494840,2972770 C 8494840,2972770 8498030,2977660 8504400,2977660 C 8510540,2977550 8513610,2972770 8513610,2972770 L 9184860,1426940 C 9231860,1318500 9316520,1259100 9407660,1238610 C 9656980,1182060 11384990,975310 11650010,950040 C 11695410,946740 11718960,904640 11718960,904640 L 11767660,821580 C 11798960,758880 11861540,721210 11919690,707100 C 12053050,677400 13356060,523670 13686850,500000 L 13690260,500000 L 13694810,500000 C 13758870,501030 13793350,569640 13757510,622440 C 13572490,895420 12662740,2202870 12656710,2214130 C 12642370,2234500 12619040,2250210 12590480,2253050 C 12581260,2254530 11377020,2395970 11377020,2395970 C 11350510,2400640 11320470,2416450 11307950,2441260 C 11307950,2441260 11221700,2587020 11214080,2599880 C 11168670,2681360 11116900,2712650 11041460,2721860 C 11013350,2725050 9409260,2916560 9409260,2916560 C 9313330,2927370 9233450,2987220 9195670,3076320 L 8614090,4417110 C 8603280,4440770 8576310,4449990 8562200,4449990 C 8562200,4449990 8447840,4449990 8446250,4449990 C 8433730,4449990 8407220,4440770 8396070,4417110 C 8386850,4393320 7814380,3076320 7814380,3076320 C 7776710,2987220 7696720,2927480 7601250,2916560 C 7601250,2916560 5997150,2725160 5968590,2721860 C 5893600,2712650 5841710,2681360 5796430,2599880 C 5788350,2586910 5702090,2441260 5702090,2441260 C 5689690,2416340 5659880,2400750 5633020,2395970 C 5633020,2395970 4428780,2254640 4419450,2253050 C 4391460,2250210 4367680,2234620 4353680,2214130 C 4347310,2202760 3438020,895420 3252990,622440 C 3216690,569530 3251860,501030 3315920,500000 L 3320580,500000 L 3323660,500000 C 3654440,523670 4957450,677400 5090700,707100 C 5148620,721210 5211550,758880 5242840,821580 L 5291430,904640 C 5291430,904640 5314640,946740 5360500,950040 C 5625510,975310 7353530,1182060 7602840,1238610 C 7693640,1258980 7778190,1318500 7825190,1426940 L 8494840,2972770 z M 8110680,4344850 L 8068580,4344850 L 8068580,4329150 L 8170540,4329150 L 8170540,4344850 L 8127870,4344850 L 8127870,4459210 L 8110680,4459210 L 8110680,4344850 z M 8239490,4459210 L 8205020,4354410 L 8205020,4459210 L 8187720,4459210 L 8187720,4329150 L 8211050,4329150 L 8248710,4440770 L 8286380,4329150 L 8309820,4329150 L 8309820,4459210 L 8292520,4459210 L 8292520,4354410 L 8256790,4459210 L 8239490,4459210 z M 742560,6064900 C 547750,6064900 447390,5950540 527730,5763920 C 559020,5693600 626380,5536680 656190,5466020 C 726860,5311040 809920,5193490 1093720,5193490 L 2581750,5193380 C 2606780,5193380 2635110,5218410 2622370,5251300 C 2613150,5274850 2595860,5312290 2586640,5334370 C 2575490,5358030 2553640,5373740 2533160,5373740 L 1135820,5373740 C 1081310,5373740 1031020,5398660 1005760,5456800 C 958880,5566270 906990,5682450 866140,5779970 C 844400,5830030 856810,5884770 917910,5884770 L 2285550,5884650 C 2313660,5884650 2338460,5913210 2326060,5942910 C 2316960,5964650 2301140,6003900 2289990,6027690 C 2280770,6049310 2256990,6065010 2236960,6065010 L 742560,6064900 L 742560,6064900 z M 14728160,5718520 C 14718480,5723300 14715300,5726600 14709270,5739000 L 14691970,5779970 C 14670010,5830030 14682410,5884770 14745340,5884770 L 16156450,5884650 C 16183300,5884650 16211410,5911620 16197300,5944510 C 16187850,5966240 16172040,6003900 16161230,6027690 C 16152010,6049310 16128340,6065010 16109450,6065010 L 14568050,6064900 C 14373700,6064900 14273340,5950540 14353220,5763920 C 14384630,5693600 14408180,5640230 14439470,5569570 C 14448800,5549090 14472470,5530310 14492950,5530310 L 16308590,5530200 C 16333960,5530200 16363550,5555570 16349440,5591640 L 16313360,5673120 C 16303810,5695190 16280480,5712490 16260000,5712490 L 14748180,5712490 C 14748180,5712490 14735780,5712490 14728160,5718520 z M 9266470,5718520 C 9257140,5723300 9253840,5726600 9247470,5739000 L 9230280,5779970 C 9208660,5830030 9220950,5884770 9281940,5884770 L 10693510,5884650 C 10721500,5884650 10750060,5911620 10735610,5944510 C 10726390,5966240 10709100,6003900 10699770,6027690 C 10688620,6049310 10666880,6065010 10646400,6065010 L 9106590,6064900 C 8910650,6064900 8811540,5950540 8891760,5763920 C 8921570,5693600 8946380,5640230 8976530,5569570 C 8985750,5549090 9009420,5530310 9029440,5530310 L 10845530,5530200 C 10870570,5530200 10901740,5555570 10886040,5591640 L 10851680,5673120 C 10840750,5695190 10818680,5712490 10798540,5712490 L 9286840,5712490 C 9286840,5712490 9274320,5712490 9266470,5718520 z M 5056240,5193380 C 4753560,5193380 3475360,5193490 3204430,5193490 C 2920630,5193380 2837450,5307850 2766900,5466020 C 2725940,5558760 2672570,5684040 2638430,5763920 C 2558210,5950540 2656870,6065010 2853160,6065010 C 3049100,6064900 4014840,6065010 4218860,6065010 C 4518240,6064900 4596530,5946100 4664010,5789180 C 4679710,5754590 4731370,5630670 4748670,5590050 C 4761530,5560350 4736260,5530310 4708160,5530310 C 4681300,5530200 4497760,5530310 4476140,5530310 C 4452470,5530200 4430400,5547490 4421180,5569570 C 4402290,5612130 4347220,5742190 4322410,5797260 C 4287930,5865880 4264150,5884770 4184270,5884770 C 4140570,5884650 3323680,5884770 3028620,5884770 C 2967630,5884650 2955110,5830150 2976850,5779970 C 3017810,5682330 3069470,5566380 3116470,5456800 C 3141500,5398540 3191570,5373740 3246530,5373740 C 3533620,5373740 4965100,5373740 5264480,5373740 C 5592530,5373740 6288590,5373740 6335580,5373740 C 6374950,5373740 6390540,5400250 6385760,5428700 C 6382920,5442690 6370060,5470910 6364030,5484910 C 6348440,5516200 6334330,5530310 6284150,5530310 C 6216790,5530200 5288260,5530310 5269370,5530310 C 5250600,5530200 5227150,5541460 5216000,5563200 C 5202010,5590050 5169010,5669930 5156490,5698040 C 5151710,5710780 5148530,5747080 5180270,5757890 C 5376220,5823660 5769480,5947810 6047350,6036900 C 6097530,6052490 6134860,6066600 6174110,6066600 C 6277660,6066600 6556680,6066600 6594450,6066600 C 6636670,6066600 6660340,5994690 6608450,5981830 C 6234080,5887840 6180600,5875550 5868250,5795560 C 5859030,5793960 5832520,5778370 5840140,5742190 C 5849810,5712490 5877920,5710900 5883950,5710900 C 6001610,5710780 6282560,5710900 6367220,5710900 C 6506610,5710780 6606860,5659120 6652600,5577650 C 6686850,5513020 6713710,5458400 6734190,5394220 C 6757400,5312290 6746590,5191900 6545870,5191900 C 6374950,5191790 5402620,5193490 5056240,5193380 z M 16496840,5254480 C 16486030,5280880 16468740,5318780 16460770,5334370 C 16451440,5358030 16429480,5373740 16409000,5373740 C 16385670,5373740 16315010,5373740 16219420,5373740 C 15763130,5373740 14345650,5373740 13965810,5373740 C 13834270,5373740 13777950,5373740 13721390,5373740 C 13690220,5373740 13639920,5394220 13621030,5442810 C 13561290,5576050 13382640,5994690 13366940,6027690 C 13357840,6050900 13340430,6065010 13315160,6065010 C 13249390,6064900 13144140,6065010 13078370,6065010 C 13042180,6064900 13028190,6030870 13037740,6007200 C 13045480,5986610 13226070,5569570 13285460,5433130 C 13294800,5409810 13280690,5373740 13244500,5373740 C 13214800,5373740 13065850,5373740 12844640,5373740 C 12702290,5373740 12753950,5373740 12532740,5373740 C 12401200,5373740 12305620,5373740 12250550,5373740 C 12217660,5373740 12167480,5390920 12143810,5444400 C 12087600,5577650 11907010,5994690 11892900,6027690 C 11882210,6050900 11864800,6065010 11839540,6065010 C 11773770,6064900 11668970,6065010 11603080,6065010 C 11568600,6064900 11552900,6030870 11562120,6007200 C 11570200,5986610 11750440,5569570 11809840,5433130 C 11821100,5409810 11805060,5373740 11769210,5373740 C 11739290,5373740 11591820,5373740 11370610,5373740 C 10643260,5373740 9210190,5373740 8753780,5373740 C 8748890,5373740 8745700,5373740 8741380,5376920 C 8734890,5378400 8731710,5379770 8728520,5382950 C 8422990,5604160 7857000,5996280 7825260,6019610 C 7783150,6049310 7726490,6072980 7649790,6072980 C 7571620,6072980 7538620,6072980 7466360,6072980 C 7392510,6072980 7350410,6060570 7323440,6005610 C 7295450,5952130 6945770,5274970 6936560,5256080 C 6917670,5223080 6945770,5191900 6973880,5191900 C 6999250,5191790 7213860,5191900 7237530,5191900 C 7260860,5191790 7281340,5209080 7292150,5230820 C 7301940,5252890 7585610,5828550 7601320,5863030 C 7612130,5886250 7643420,5897620 7668680,5877140 C 7687680,5863030 8553060,5242080 8579570,5221600 C 8606420,5202600 8634530,5191900 8675490,5191900 C 9849690,5191790 15251640,5193490 16269610,5193490 C 16355630,5193380 16421400,5193490 16457470,5193490 C 16481250,5193380 16500030,5211930 16500030,5235600 C 16500140,5241970 16500030,5248110 16496840,5254480 z M 16338330,5960100 L 16338330,5924020 L 16368370,5924020 C 16387380,5924020 16388520,5931760 16388520,5941320 C 16388520,5958500 16380890,5960210 16365190,5960210 L 16338330,5960100 z M 16377710,5970910 C 16390110,5970910 16404100,5964650 16404100,5944510 C 16404220,5934830 16401370,5922430 16393290,5919240 C 16385670,5913100 16377590,5913210 16365190,5913210 L 16325930,5913100 L 16325930,6021200 L 16338330,6021200 L 16338330,5970910 L 16360410,5970910 L 16393410,6021200 L 16410590,6021200 L 16377710,5970910 z M 16446780,5966240 C 16446780,5919240 16409000,5881470 16360410,5881470 C 16313410,5881470 16277230,5919240 16277230,5966240 C 16277340,6013460 16313410,6052490 16360410,6052490 C 16409000,6052490 16446660,6013580 16446780,5966240 z M 16264830,5966240 C 16264830,5913100 16306930,5869060 16360410,5869060 C 16415370,5868950 16457470,5913210 16457470,5966240 C 16457590,6019610 16415370,6063760 16360410,6063760 C 16306930,6063760 16264830,6019610 16264830,5966240 z "
   style="fill:#78787a"
   id="_47252296" />

   <path
   d="M 8430660,4360550 C 8430660,4360550 8210930,3854300 8208200,3846340 C 8203310,3835410 8204900,3823010 8208200,3811740 C 8209450,3806850 9233450,1447420 9233450,1447420 C 9269520,1365490 9335410,1310870 9420070,1291980 C 9660160,1237020 11358130,1031520 11654440,1005000 C 11726700,998520 11762770,937530 11765960,931150 L 11814550,846380 C 11841170,796200 11891240,769800 11930610,760580 C 12067160,729180 13362090,577040 13686850,554970 C 13700960,553370 13708920,561450 13711650,565890 C 13714950,568960 13718140,583070 13710510,594340 C 13555190,824650 12610960,2182730 12610960,2182730 C 12607780,2187170 12600150,2198430 12582860,2200020 C 12582970,2199910 11370540,2342600 11370540,2342600 C 11322060,2348980 11279850,2377080 11259370,2416450 L 11168670,2572910 C 11126120,2643580 11088340,2660870 11034970,2667360 L 9401180,2861490 C 9288410,2875590 9192830,2947850 9145490,3054240 C 9141050,3065400 8669050,4152200 8577910,4360550 C 8568690,4382510 8548210,4395030 8527720,4395030 C 8513730,4394920 8498030,4395030 8482320,4395030 C 8443070,4394920 8430550,4360550 8430660,4360550 z M 8192160,3711380 C 8192160,3711380 8186130,3725490 8170420,3725490 C 8156310,3725490 8148350,3709790 8148350,3709790 C 8148350,3709790 7869340,3065510 7864560,3054240 C 7817680,2947850 7721980,2875590 7607280,2861600 L 5975080,2667250 C 5921710,2660760 5883930,2643580 5843310,2573030 L 5750680,2416340 C 5730540,2377080 5687980,2348980 5639400,2342600 C 5639510,2342490 4427530,2200020 4427530,2200020 C 4411600,2198320 4402270,2187170 4398970,2182730 C 4398970,2182730 3455310,824760 3299870,594340 C 3290770,583070 3295100,569080 3298280,565890 C 3301580,561450 3307610,553370 3323660,554970 C 3647960,577040 4944940,729180 5079890,760580 C 5118920,769690 5168990,796310 5195840,846490 L 5244430,931040 C 5247730,937530 5283350,998630 5355600,1005000 C 5651910,1031400 7350340,1237020 7589980,1291980 C 7674760,1310870 7740530,1365490 7775000,1447420 C 7775120,1447310 8454220,3012140 8461840,3027730 C 8471630,3051400 8471510,3070290 8460250,3092020 C 8457520,3101580 8192160,3711380 8192160,3711380 z "
   style="fill:#c7c9c9"
   id="_109391696" />

   <path
   d="M 8160870,3460470 C 8160870,3460470 8162350,3468550 8170420,3468550 C 8178050,3468440 8179640,3462180 8179640,3462180 L 8341560,3088840 C 8341560,3088840 8355450,3060730 8341450,3026140 C 8336670,3015330 7714010,1580670 7710830,1572590 C 7681130,1513190 7612060,1495890 7601250,1494300 C 7157350,1418740 5600140,1230990 5336710,1207320 L 5215980,1193210 C 5215980,1193210 5161360,1191620 5126770,1133470 C 5125180,1128920 5076590,1045970 5046890,995790 C 5034150,973600 5010820,953230 4977930,948450 C 4765940,917040 4055780,833980 3602560,785390 C 3588670,783800 3574450,801090 3585370,816680 C 3717140,1003300 4450860,2065180 4450860,2065180 C 4468160,2089990 4496150,2099660 4509010,2099660 L 5651910,2234500 C 5733390,2243720 5805640,2290720 5843310,2358190 C 5843420,2358080 5887120,2432040 5918410,2486660 C 5950160,2538440 6000340,2558920 6040850,2565290 C 6081810,2569730 7621620,2753160 7621620,2753160 C 7773530,2770450 7902220,2867970 7964920,3010550 C 7969700,3022840 8160750,3460470 8160870,3460470 z "
   style="fill:black;fill-opacity:1"
   id="_132208288" />

   <path
   d="M 11883700,1133360 C 11885180,1128920 11933770,1045970 11963470,995790 C 11975980,973600 11999540,953230 12032540,948450 C 12244190,917040 12954580,833980 13407800,785390 C 13421910,783800 13435910,801090 13425100,816680 C 13292990,1003300 12683190,1886080 12559160,2065180 C 12540380,2089990 12512160,2099660 12501350,2099660 L 11356510,2234500 C 11276750,2243720 11204370,2290720 11167050,2358190 L 11883700,1133360 z "
   style="fill:#b52105"
   id="_132196792" />

   <path
   d="M 4236140,1646440 L 4806910,1709020 L 4563630,1320090 L 3964750,1254320 L 4236140,1646440 z M 5048260,2099660 L 5658280,2171460 C 5547110,1980410 5082620,1180810 5073400,1164770 L 4991930,1025490 C 4990450,1020590 4982260,1013080 4966670,1009780 C 4853900,992490 4599700,962900 4320800,929900 L 4563630,1320090 L 5167390,1387450 L 5393500,1773310 L 4806910,1709020 L 5048260,2099660 z M 7806870,1951850 L 7008400,1857970 L 7213910,2261020 L 7980620,2351820 C 7919630,2210830 7858070,2071210 7806870,1951850 z M 7419300,2665650 L 7213910,2261020 L 6445600,2171460 L 6651100,2574510 C 6934890,2609100 7237460,2645280 7419300,2665650 z M 6798350,1444120 C 6555060,1412830 6282540,1378350 6026850,1348190 L 6239980,1766830 L 7008400,1857970 L 6798350,1444120 z M 5760240,2089990 C 5725880,2085210 5689580,2066780 5656690,2027410 L 5449590,1674540 L 6239980,1766830 L 6445600,2171460 L 5760240,2089990 z "
   style="fill:#c7c9c9"
   id="_47799064" />

   <path
   d="M 11160700,2370600 C 11146700,2392670 11115300,2444560 11089920,2486660 C 11060340,2538440 11010160,2558920 10969190,2565290 C 10928680,2569730 9388760,2753160 9388760,2753160 C 9236630,2770450 9108160,2867970 9045120,3010550 C 9040680,3020110 8549790,4152200 8549790,4152200 C 8549790,4152090 8537270,4178720 8504390,4178720 C 8471620,4178600 8458990,4150610 8458990,4150610 C 8459100,4150500 8336660,3868410 8331770,3858740 C 8324260,3841440 8324140,3824260 8333360,3797750 C 8336660,3788420 9296020,1579070 9299210,1572590 C 9327770,1514780 9395140,1495890 9409250,1494300 C 9851210,1418740 11408310,1230990 11673210,1207320 L 11794170,1193210 C 11794170,1193210 11849130,1191620 11883610,1133470 L 11160700,2370600 L 11160700,2370600 z "
   style="fill:#db240f"
   id="_47529840" />

   <path
   d="M 10065900,1770130 L 10622780,1705840 L 10567820,1835900 L 11124480,1771720 L 10875170,2047890 L 10458130,2096360 L 10403170,2226420 L 9845260,2290720 L 9901360,2160650 L 9344920,2224940 L 9594240,1949120 L 10011390,1900190 L 10065900,1770130 z M 12170670,1843980 C 12169080,1843980 12131300,1848760 12120370,1850010 C 12117190,1849890 12112410,1851600 12109220,1859680 C 12103190,1880050 12067010,1980410 12076220,1978820 C 12084420,1978820 12173400,1853190 12174990,1850010 C 12176590,1848760 12174990,1842380 12170670,1843980 z M 12297540,1321680 C 12286730,1351380 12179770,1674540 12164180,1721540 C 12162590,1729500 12164180,1735650 12172150,1733940 C 12176590,1733940 12198660,1731210 12198660,1731210 C 12209580,1729500 12212770,1721540 12212770,1719950 C 12244180,1671360 12470050,1332610 12482450,1301310 C 12490190,1279580 12523420,1088070 12507370,1066000 C 12506120,1064400 12504530,1064400 12502940,1064400 C 12477670,1066000 12303800,1302910 12297540,1321680 z M 12107630,1742020 C 12109220,1742020 12121970,1740430 12126400,1740430 C 12136080,1738720 12137670,1729620 12138920,1728020 C 12150190,1690250 12242470,1381530 12172150,1381530 C 12148480,1381530 11947750,1564960 11963460,1570990 C 11971420,1572590 12076220,1511600 12090330,1513190 C 12098410,1513190 12101480,1676140 12098300,1732800 C 12098410,1733940 12098300,1743610 12107630,1742020 z M 12629920,1346940 C 12651890,1384380 12686480,1486340 12676810,1495890 C 12675210,1497490 12673960,1497600 12672370,1497600 C 12658030,1489410 12609330,1436150 12587710,1447420 C 12529560,1478600 12400980,1575890 12305510,1709140 C 12300730,1713910 12297430,1718350 12288210,1719950 C 12280250,1721420 12275360,1721540 12253620,1724720 C 12247250,1726320 12242470,1719950 12248840,1712320 C 12336800,1575770 12470050,1379940 12600110,1331350 C 12617410,1326570 12622190,1332610 12629920,1346940 z M 12286730,1763980 C 12291060,1751120 12285030,1742020 12275360,1743610 L 12087490,1765580 C 12076220,1766830 12070190,1771720 12065410,1784240 L 12054600,1815870 C 12049820,1828270 12054600,1836010 12065410,1836010 L 12255330,1812570 C 12266140,1810980 12269320,1806200 12273760,1793800 L 12286730,1763980 z "
   style="fill:#ebb000"
   id="_46374920" />
  </g>
</svg>
