<svg width="580" height="80" xmlns="http://www.w3.org/2000/svg">
  <path d="M 0 0 h 580 v 80 h -580 Z" fill="#FFFFFF" />
  <g transform="matrix(1,0,0,1,-11,-160)">
  <path d="M 26.312 214.898 L 21.810 214.162 L 18.850 212.046 L 17.717 208.690 L 18.700 204.234 L 19.730 201.885 L 20.995 198.960 L 22.251 196.033 L 23.251 193.678 L 24.571 191.056 L 26.149 188.734 L 28.171 186.791 L 30.822 185.305 L 34.288 184.356 L 38.754 184.022 L 91.480 184.018 L 92.919 186.070 L 91.653 189.013 L 89.758 190.408 L 40.246 190.408 L 37.553 191.107 L 35.638 193.352 L 34.368 196.291 L 33.084 199.236 L 31.841 202.101 L 30.691 204.802 L 30.507 207.324 L 32.525 208.516 L 80.985 208.512 L 82.420 210.576 L 81.142 213.580 L 79.263 214.902 L 26.312 214.898 L 26.312 214.898 Z" fill="#78787a"/>
  <path d="M 521.865 202.625 L 521.195 203.351 L 520.582 204.802 L 520.400 207.324 L 522.473 208.516 L 572.473 208.512 L 573.921 210.633 L 572.643 213.580 L 570.808 214.902 L 516.191 214.898 L 511.699 214.162 L 508.742 212.046 L 507.606 208.690 L 508.579 204.234 L 509.620 201.897 L 510.598 199.692 L 511.635 197.347 L 513.530 195.956 L 577.864 195.952 L 579.311 198.129 L 578.033 201.016 L 576.142 202.411 L 522.574 202.411 L 521.865 202.625 Z" fill="#78787a"/>
  <path d="M 328.340 202.625 L 327.667 203.351 L 327.058 204.802 L 326.875 207.324 L 328.888 208.516 L 378.905 208.512 L 380.396 210.633 L 379.126 213.580 L 377.235 214.902 L 322.675 214.898 L 318.157 214.162 L 315.200 212.046 L 314.077 208.690 L 315.063 204.234 L 316.074 201.897 L 317.048 199.692 L 318.067 197.347 L 319.941 195.956 L 384.291 195.952 L 385.726 198.129 L 384.509 201.016 L 382.626 202.411 L 329.062 202.411 L 328.340 202.625 Z" fill="#78787a"/>
  <path d="M 179.159 184.018 L 177.188 184.018 L 174.705 184.018 L 171.770 184.018 L 168.445 184.018 L 164.791 184.018 L 160.870 184.019 L 156.743 184.019 L 152.472 184.019 L 148.118 184.020 L 143.743 184.020 L 139.408 184.020 L 135.174 184.020 L 131.103 184.021 L 127.257 184.021 L 123.697 184.021 L 120.484 184.021 L 117.679 184.022 L 115.346 184.022 L 113.543 184.022 L 109.077 184.346 L 105.610 185.278 L 102.958 186.747 L 100.936 188.683 L 99.358 191.017 L 98.040 193.678 L 96.887 196.316 L 95.674 199.127 L 94.506 201.852 L 93.488 204.234 L 92.500 208.690 L 93.618 212.048 L 96.574 214.165 L 101.097 214.902 L 102.982 214.902 L 105.584 214.901 L 108.784 214.901 L 112.462 214.901 L 116.501 214.901 L 120.781 214.901 L 125.185 214.901 L 129.593 214.901 L 133.887 214.901 L 137.947 214.902 L 141.656 214.902 L 144.895 214.902 L 147.545 214.902 L 149.488 214.902 L 154.173 214.563 L 157.760 213.602 L 160.456 212.099 L 162.466 210.133 L 163.999 207.783 L 165.261 205.129 L 166.150 203.075 L 167.334 200.270 L 168.261 198.073 L 166.825 195.956 L 164.441 195.954 L 160.864 195.955 L 158.604 195.956 L 156.657 197.347 L 155.647 199.676 L 154.306 202.791 L 153.157 205.415 L 151.313 207.877 L 148.262 208.516 L 147.331 208.515 L 145.417 208.514 L 142.681 208.514 L 139.281 208.514 L 135.377 208.514 L 131.128 208.514 L 126.693 208.515 L 122.233 208.515 L 117.905 208.515 L 113.870 208.516 L 110.286 208.516 L 107.314 208.516 L 105.297 207.324 L 105.480 204.802 L 106.631 202.100 L 107.873 199.236 L 109.155 196.292 L 110.427 193.352 L 112.333 191.106 L 115.035 190.408 L 116.756 190.408 L 118.975 190.408 L 121.642 190.408 L 124.704 190.408 L 128.109 190.408 L 131.804 190.408 L 135.737 190.408 L 139.855 190.408 L 144.108 190.408 L 148.442 190.408 L 152.805 190.408 L 157.145 190.408 L 161.409 190.408 L 165.546 190.408 L 169.502 190.408 L 173.227 190.408 L 176.667 190.408 L 179.770 190.408 L 182.485 190.408 L 184.758 190.408 L 186.537 190.408 L 190.004 190.408 L 193.954 190.408 L 198.226 190.408 L 202.658 190.408 L 207.086 190.408 L 211.348 190.408 L 215.283 190.408 L 218.727 190.408 L 221.517 190.408 L 223.492 190.408 L 224.490 190.408 L 226.268 192.356 L 225.498 194.348 L 222.667 195.956 L 221.307 195.955 L 218.716 195.955 L 215.178 195.955 L 210.976 195.954 L 206.392 195.955 L 201.709 195.955 L 197.210 195.955 L 193.178 195.956 L 189.895 195.956 L 187.645 195.956 L 186.711 195.956 L 184.820 197.122 L 183.746 199.494 L 182.711 201.899 L 183.554 204.020 L 185.835 204.778 L 188.470 205.640 L 191.391 206.587 L 194.532 207.598 L 197.827 208.653 L 201.208 209.734 L 204.611 210.819 L 207.967 211.890 L 211.211 212.925 L 214.277 213.906 L 216.668 214.640 L 218.768 214.959 L 221.598 214.959 L 225.211 214.959 L 228.898 214.959 L 231.952 214.959 L 233.662 214.959 L 234.158 211.955 L 229.677 210.831 L 226.020 209.917 L 222.949 209.150 L 220.220 208.469 L 217.595 207.811 L 214.833 207.113 L 211.691 206.316 L 207.931 205.355 L 206.935 203.464 L 208.487 202.355 L 211.581 202.353 L 215.452 202.353 L 219.488 202.354 L 223.078 202.355 L 225.611 202.355 L 229.047 202.021 L 231.911 201.075 L 234.154 199.589 L 235.723 197.634 L 236.850 195.436 L 237.811 193.321 L 238.614 191.134 L 238.830 187.985 L 237.015 185.179 L 231.941 183.965 L 230.366 183.965 L 228.124 183.967 L 225.304 183.970 L 221.997 183.973 L 218.292 183.978 L 214.280 183.983 L 210.050 183.989 L 205.692 183.994 L 201.296 184.000 L 196.952 184.005 L 192.750 184.010 L 188.780 184.013 L 185.131 184.016 L 181.894 184.018 L 179.159 184.018 Z" fill="#78787a"/>
  <path d="M 584.534 186.183 L 583.256 189.013 L 581.422 190.408 L 579.023 190.408 L 574.704 190.408 L 572.408 190.408 L 569.761 190.408 L 566.797 190.408 L 563.551 190.408 L 560.059 190.408 L 556.356 190.408 L 552.475 190.408 L 548.453 190.408 L 544.324 190.408 L 540.123 190.408 L 535.885 190.408 L 531.644 190.408 L 527.437 190.408 L 523.297 190.408 L 519.260 190.408 L 515.361 190.408 L 511.634 190.408 L 508.115 190.408 L 504.838 190.408 L 501.838 190.408 L 499.151 190.408 L 496.810 190.408 L 494.852 190.408 L 490.981 190.408 L 488.292 190.408 L 486.192 190.408 L 484.250 190.987 L 482.636 192.856 L 481.500 195.429 L 480.022 198.824 L 478.379 202.626 L 476.743 206.419 L 475.290 209.786 L 474.195 212.312 L 473.632 213.580 L 471.798 214.902 L 469.105 214.901 L 466.101 214.901 L 463.407 214.902 L 461.968 212.854 L 462.430 211.751 L 463.460 209.348 L 464.875 206.064 L 466.493 202.319 L 468.133 198.532 L 469.611 195.124 L 470.745 192.513 L 469.294 190.408 L 467.738 190.408 L 464.754 190.408 L 460.498 190.408 L 455.126 190.408 L 452.373 190.408 L 450.648 190.408 L 448.398 190.408 L 444.074 190.408 L 439.844 190.408 L 436.499 190.408 L 434.075 190.408 L 432.062 190.950 L 430.293 192.912 L 429.200 195.482 L 427.747 198.870 L 426.115 202.661 L 424.485 206.441 L 423.035 209.797 L 421.948 212.315 L 421.403 213.580 L 419.512 214.902 L 416.823 214.901 L 413.825 214.901 L 411.133 214.902 L 409.682 212.854 L 410.148 211.751 L 411.179 209.348 L 412.594 206.064 L 414.211 202.319 L 415.849 198.532 L 417.326 195.124 L 418.460 192.513 L 417.020 190.408 L 415.468 190.408 L 412.500 190.408 L 408.261 190.408 L 402.896 190.408 L 399.933 190.408 L 396.782 190.408 L 393.461 190.408 L 389.989 190.408 L 386.384 190.408 L 382.664 190.408 L 378.848 190.408 L 374.952 190.408 L 370.997 190.408 L 366.999 190.408 L 362.976 190.408 L 358.948 190.408 L 354.933 190.408 L 350.947 190.408 L 347.010 190.408 L 343.140 190.408 L 339.355 190.408 L 335.673 190.408 L 332.113 190.408 L 328.692 190.408 L 325.428 190.408 L 322.340 190.408 L 319.446 190.408 L 316.765 190.408 L 314.313 190.408 L 312.110 190.408 L 310.174 190.408 L 309.735 190.521 L 309.279 190.735 L 306.396 192.809 L 303.227 195.070 L 299.869 197.450 L 296.420 199.883 L 292.977 202.303 L 289.638 204.644 L 286.502 206.838 L 283.665 208.819 L 281.227 210.522 L 279.283 211.880 L 277.933 212.826 L 277.274 213.294 L 274.625 214.634 L 271.056 215.185 L 267.728 215.185 L 264.557 215.185 L 261.402 214.721 L 259.493 212.798 L 258.772 211.410 L 257.400 208.759 L 255.570 205.219 L 253.475 201.163 L 251.309 196.966 L 249.263 193.001 L 247.532 189.643 L 246.308 187.264 L 245.784 186.239 L 247.107 183.965 L 249.742 183.964 L 253.854 183.964 L 256.449 183.965 L 258.384 185.344 L 258.931 186.481 L 260.164 189.003 L 261.856 192.454 L 263.783 196.380 L 265.719 200.327 L 267.441 203.840 L 268.722 206.464 L 269.339 207.746 L 271.726 208.245 L 272.484 207.697 L 274.285 206.402 L 276.921 204.507 L 280.184 202.162 L 283.867 199.516 L 287.764 196.716 L 291.665 193.912 L 295.366 191.251 L 298.656 188.883 L 301.331 186.955 L 303.182 185.618 L 304.001 185.018 L 305.513 184.239 L 307.400 183.965 L 309.119 183.965 L 310.990 183.965 L 313.008 183.965 L 315.170 183.965 L 317.470 183.965 L 319.905 183.966 L 322.470 183.966 L 325.162 183.966 L 327.976 183.966 L 330.909 183.967 L 333.955 183.967 L 337.111 183.968 L 340.372 183.968 L 343.735 183.969 L 347.195 183.970 L 350.748 183.970 L 354.390 183.971 L 358.117 183.972 L 361.924 183.972 L 365.808 183.973 L 369.764 183.974 L 373.787 183.975 L 377.875 183.976 L 382.022 183.977 L 386.225 183.978 L 390.480 183.979 L 394.781 183.980 L 399.125 183.981 L 403.509 183.982 L 407.927 183.983 L 412.375 183.984 L 416.850 183.985 L 421.347 183.986 L 425.861 183.987 L 430.390 183.989 L 434.928 183.990 L 439.472 183.991 L 444.017 183.992 L 448.559 183.993 L 453.095 183.994 L 457.619 183.995 L 462.127 183.997 L 466.616 183.998 L 471.081 183.999 L 475.519 184.000 L 479.924 184.001 L 484.293 184.002 L 488.622 184.003 L 492.906 184.004 L 497.141 184.005 L 501.323 184.007 L 505.449 184.008 L 509.513 184.009 L 513.511 184.010 L 517.440 184.010 L 521.295 184.011 L 525.072 184.012 L 528.768 184.013 L 532.376 184.014 L 535.895 184.015 L 539.319 184.016 L 542.643 184.016 L 545.865 184.017 L 548.980 184.018 L 551.984 184.018 L 554.872 184.019 L 557.640 184.019 L 560.285 184.020 L 562.801 184.020 L 565.186 184.021 L 567.434 184.021 L 569.541 184.021 L 571.504 184.021 L 573.318 184.022 L 574.979 184.022 L 576.483 184.022 L 580.475 184.020 L 583.139 184.022 L 584.647 185.514 L 584.534 186.183 Z" fill="#78787a"/>
 </g>
</svg>