<svg xmlns="http://www.w3.org/2000/svg" viewBox="0 0 200 40" width="600" height="120" >
 <rect fill="#FF0" width="200" height="40"/>

 <!-- LEFT TRAPEZOIDS "GR" -->
 <polygon fill="#F00" points="74.86 6.43 74.37 6.43 67.95 31.93 91.93 31.93 98.35 6.43 74.86 6.43"/>
 <polygon fill="#000" points="51.42 6.43 45 31.93 68.33 31.93 74.75 6.43 51.42 6.43"/>
 <path fill="#FFF" d="M 93.23,20.26a8,8,0,0,1-.76,2.33c-.64,1.29-1.94,2-3.77,2.23a12.64,12.64,0,0,1-1.67.07l3.82,5.43H85.18l-5.31-7.55H85c1.11,0,2.57-.32,3-1.09a2.34,2.34,0,0,0,.3-1c0-.51-.49-.95-1.34-.95H78.6L76,30.17H70.61L74,17.1H89.33c2.87,0,4.22,1.44,3.89,3.16"/>
 <path fill="#FFF" d="
M 68.71,22.5H59.87L59,25h4.39l-.72,2.39H55.65c-1.55,0-2.19-.38-2-1.46a16.43,16.43,0,0,1,1.05-3.41c.85-2.3,2.08-2.89,7.19-2.89h7.66l.81-2.6h-9.2c-7.5,0-10.06.88-11.49,4.54A31.84,31.84,0,0,0,48.09,27c-.38,2.23,1.34,3.1,3.18,3.16,2.54.09,15.27,0,15.27,0Z"/>

 <!-- G_a_zoo -->
 <path fill="#000" d="M 119,17.12h-3.61a3.73,3.73,0,0,0-3.33,1.51c-.55.81-2.09,3.84-2.09,3.84h2.56l.78-1.5h3.33l0,1.5h2.45L119,17.12"/>
 <path fill="#FF0" d="M 113.81,20a11.43,11.43,0,0,1,.69-1.23,1.79,1.79,0,0,1,1.57-.73h.52l0,2Z" />

 <!-- TOYOTA_A_ -->
 <path fill="#000" d="
M 154.88,8.33 h-3.71a3.83,3.83,0,0,0-3.42,1.55c-.56.83-2.15,3.94-2.15,3.94h2.62l.8-1.54h3.42l0,1.54H155Z
"/>
 <path fill="#FF0" d="
M 149.53,11.33 a11.74,11.74,0,0,1,.71-1.26,1.85,1.85,0,0,1,1.61-.76h.53l.05,2Z
" />

 <path fill="#000" d="M 129.09,22.47l.17-.94h-4.81s4.65-3.15,5.25-3.51l.18-.91h-8.62l-.13.91h4.79l-5.34,3.51-.17.94Z"/>
 <path fill="#000" d="M 137.61,17.12a35.42,35.42,0,0,0-3.63,0c-1.59.1-2.64.46-3.06,1.83a17.34,17.34,0,0,0-.45,1.95c-.21,1.26.5,1.53,1.34,1.58,1.28.07,3.18.09,4.5,0s2.23-.41,2.62-1.6a12.6,12.6,0,0,0,.47-2c.15-.91-.29-1.75-1.79-1.84"/>
 <path fill="#FF0" d="M 135.26,21.45 a11,11,0,0,1-1.51,0c-.32,0-.88-.11-.81-.74a12.59,12.59,0,0,1,.46-2,1.16,1.16,0,0,1,1.19-.75c.44,0,1,0,1.34,0,.8,0,1.1.34,1,1a10.27,10.27,0,0,1-.45,1.69,1.28,1.28,0,0,1-1.21.81"/>" />

 <!-- T_O_YOTA -->
 <path fill="#000" d="M 118.38,8.32a33.24,33.24,0,0,0-3.6,0c-1.64.1-2.72.47-3.15,1.88a18.19,18.19,0,0,0-.46,2c-.21,1.29.51,1.57,1.38,1.62,1.31.08,3.14.09,4.49,0s2.3-.43,2.69-1.64a13,13,0,0,0,.49-2c.16-.94-.3-1.8-1.83-1.88" />
 <path fill="#FF0" d="
M 116,12.85a9.56,9.56,0,0,1-1.42,0c-.33,0-.9-.11-.84-.76a13.33,13.33,0,0,1,.47-2,1.2,1.2,0,0,1,1.22-.77,12.44,12.44,0,0,1,1.26,0c.82,0,1.13.35,1,1a10.59,10.59,0,0,1-.46,1.74,1.32,1.32,0,0,1-1.24.83
"/>

 <!-- TOY_O_TA -->
 <path fill="#000" d="
M 136.12,8.32a33.22,33.22,0,0,0-3.6,0c-1.64.1-2.72.47-3.15,1.88a18.35,18.35,0,0,0-.46,2c-.21,1.29.51,1.57,1.38,1.62,1.32.08,3.14.09,4.49,0s2.29-.43,2.69-1.64a12.77,12.77,0,0,0,.49-2c.16-.94-.3-1.8-1.83-1.88" />
 <path fill="#FF0" d="M 133.72,12.83 a9.58,9.58,0,0,1-1.42,0c-.33,0-.9-.11-.83-.76a12.93,12.93,0,0,1,.47-2,1.2,1.2,0,0,1,1.22-.77,12.37,12.37,0,0,1,1.25,0c.82,0,1.13.35,1,1a10.37,10.37,0,0,1-.46,1.74,1.31,1.31,0,0,1-1.24.83"/>

 <!-- GAZO_O_ -->
 <path fill="#000" d="
M 147.37,17.12a35.41,35.41,0,0,0-3.63,0c-1.59.1-2.64.46-3.06,1.83a17.46,17.46,0,0,0-.45,1.95c-.21,1.26.5,1.53,1.34,1.58,1.28.07,3.18.09,4.49,0s2.23-.41,2.62-1.6a12.55,12.55,0,0,0,.47-2c.15-.91-.29-1.75-1.79-1.84
"/>
 <path fill="#FF0" d="
M 145,21.53a11,11,0,0,1-1.51,0c-.32,0-.88-.11-.81-.74a12.36,12.36,0,0,1,.46-2,1.15,1.15,0,0,1,1.19-.75c.44,0,1,0,1.35,0,.8,0,1.1.34,1,1a10.43,10.43,0,0,1-.44,1.69,1.28,1.28,0,0,1-1.21.81
" />

 <!-- R_a_cing -->
 <path fill="#000" d="M 109.84,31c-1,0-1.24-.26-1.18-1a3.52,3.52,0,0,1,.19-.89c.25-.72,1.23-1.11,2.46-1.11h2.55s.26-.69-.63-.69h-3.48l.19-.91h4.33c1.59,0,2.12.87,1.9,1.92-.16.76-.57,2.63-.57,2.63Z"/>
 <path fill="#FF0" d="M 111.11,30.08 h2.34l.26-1.19H112c-.74,0-1.1.15-1.21.52a1.79,1.79,0,0,0-.08.33c0,.19,0,.34.44.34" /> 

 <path fill="#000" d="M 119.5,31c-2,0-2.23-1-2-1.88.06-.28.09-.4.24-.9.37-1.3,1.21-1.77,3.17-1.77h4.3l-.19.88h-3.25c-1.12,0-1.53.53-1.66.94a4.58,4.58,0,0,0-.2.79c-.09.64.16,1,1,1h3.52l-.21.91Z"/>
 <polygon fill="#000" points="127.15 24.42 129.56 24.42 129.31 25.6 126.91 25.6 127.15 24.42"/>
 <polygon fill="#000" points="128.14 31.04 129.11 26.49 126.76 26.49 125.8 31.04 128.14 31.04"/>
 <path fill="#000" d="M 137.63,28.39c-.19.88-.57,2.65-.57,2.65h-2.33s.33-1.46.48-2.2c.22-1.08,0-1.34-1.29-1.34H133L132.27,31h-2.36l1-4.54h4.19c1.88,0,2.89.37,2.57,1.89"/>
 <polygon fill="#000" points="105.26 8.51 103.96 13.83 106.7 13.83 108 8.51 111.66 8.51 111.97 7.15 102 7.15 101.67 8.51 105.26 8.51"/>
 <polygon fill="#000" points="141.81 9.39 140.72 13.87 143.03 13.87 144.12 9.39 147.19 9.39 147.46 8.25 139.08 8.25 138.8 9.39 141.81 9.39"/>
 <polygon fill="#000" points="123.36 11.77 122.89 13.87 125.16 13.87 125.67 11.77 129.86 8.23 127.64 8.23 124.58 10.65 122.39 8.23 120.32 8.23 123.36 11.77"/>

 <!-- Racin_g_ -->
 <path fill="#000" d="M 138.17,33.57l.68-1.19h1.95c2.15,0,2.43-1.26,2.43-1.26h-3.28c-.8,0-1.47-.26-1.28-1.36a9,9,0,0,1,.35-1.52c.34-1,1.49-1.76,3.63-1.76l3.89,0s-.44,2.52-.89,4.25c-.59,2.22-2,2.82-4.77,2.82Z"/>
 <path fill="#FF0" d="M 143.4,30.14 l .57-2.66h-.79c-.92,0-1.77.26-2,1.21a5.65,5.65,0,0,0-.17.8c-.05.4.27.63.89.63Z" />

 <path fill="#F00" d="M 108.51,26.08a4,4,0,0,1-.38,1.16,2.24,2.24,0,0,1-1.87,1.11,6.48,6.48,0,0,1-.83,0l1.9,2.69h-2.81l-2.63-3.75h2.53c.55,0,1.28-.16,1.48-.54a1.18,1.18,0,0,0,.15-.51c0-.25-.25-.47-.67-.47h-4.13L99.93,31H97.27l1.67-6.49h7.63c1.43,0,2.1.72,1.93,1.57"/>
 <path fill="#000" d="M 109.71,18.65h-4.4l-.41,1.23h2.19l-.36,1.2H103.2c-.77,0-1.09-.19-1-.73a8.17,8.17,0,0,1,.53-1.7c.43-1.15,1-1.44,3.58-1.44h3.81l.4-1.29h-4.58c-3.73,0-5,.44-5.72,2.26a15.69,15.69,0,0,0-.76,2.71c-.19,1.11.67,1.54,1.58,1.57,1.26,0,7.61,0,7.61,0Z"/>
</svg>