<?xml version="1.0" encoding="UTF-8" standalone="no"?>
<svg
   xmlns="http://www.w3.org/2000/svg"
   width="92"
   height="352"
   viewBox="0 0 46 176">
  <rect fill="#FFF" width="46" height="176" />

  <path
     style="fill:#000;"
     d="
M 0 104
  46 113
  46 176
  0 176
Z
" />

  <rect fill="#666" x="17" y="20" width="12" height="136" />
  <circle cx="23" cy="114" r="8" fill="#666" />
  <circle cx="23" cy="114" r="6" fill="#FF0" />

<g>
 <g id="light">
  <circle cx="23" cy="25" r="20" fill="#666" />

  <circle cx="23" cy="11" r="2" fill="#AAA" />
  <circle cx="23" cy="18" r="2" fill="#AAA" />
  <circle cx="23" cy="25" r="2" fill="#AAA" />
  <circle cx="23" cy="32" r="2" fill="#AAA" />
  <circle cx="23" cy="39" r="2" fill="#AAA" />
  
  <circle cx="30" cy="21" r="2" fill="#AAA" />
  <circle cx="30" cy="29" r="2" fill="#AAA" />
  <circle cx="16" cy="21" r="2" fill="#AAA" />
  <circle cx="16" cy="29" r="2" fill="#AAA" />

  <circle cx="37" cy="20" r="2" fill="#AAA" />
  <circle cx="37" cy="30" r="2" fill="#AAA" />
  <circle cx="9" cy="20" r="2" fill="#AAA" />
  <circle cx="9" cy="30" r="2" fill="#AAA" />

  <circle cx="31" cy="14" r="2" fill="#AAA" />
  <circle cx="31" cy="36" r="2" fill="#AAA" />
  <circle cx="15" cy="14" r="2" fill="#AAA" />
  <circle cx="15" cy="36" r="2" fill="#AAA" />
 </g>
 <use href="#light" y="61" />
 <use href="#light" y="124" />
</g>

</svg>
