<?xml version="1.0" standalone="yes"?>
<svg xmlns="http://www.w3.org/2000/svg" width="107" height="88">

<rect width="107" height="88" fille="#000" />

<!-- White -->
<path style="fill:#FFF; stroke:none;" d="
M 4 0
4 38
4.14815 43.95
6 47.3
20.9722 55
23 76
51 86.1998
52 86.4313
54 86.6304
59 85.6404
84 76
85.5 55
L101.397 47.3627
L102.852 43.9568
L103 0
z"/>

<!-- Blue left stripe down -->
<path style="fill:#125296; stroke:none;" d="
M 8.5 46
9.58488 45
9.84 43.679
10.5 13
11.5 0
7 0
7 40
7.2 43
z"/>

<!-- Red face upper 2 sections -->
<path style="fill:#c31a30; stroke:none;" d="
M 
54 0
54 13
59.2145 6.95062
76 0

M 
61 32
79.5 25
81.5 22
 100 13
100 0
79 9
75 13
58.3904 20
54 28
    54 46
z"/>

<!-- Blue star face -->
<path style="fill:#125296; stroke:none;" d="
M
13 17
17 30
26 34
27 37
46 44
        54 58
    54 46
47 32

  34 27
  35 30.2
  39.5 32
  35.8 33.6
  37.3 38.5
  33.3 34.2
  29 35.6
  30.9 31.8
  27.5 27.5
  32 29
  33 26.6

28.5 25
 26.5 22
z"/>

<!-- red face lower -->
<path style="fill:#c31a30; stroke:none;" d="
M
94 21
91 30
82 34
81 37
62 44
          54 58
54 84
81 74
82 73
83 56
77 56
97.4113 47
100 44
100 22
95 23.4
z"/>

<!-- teeth -->
<path style="fill:#125296;" d="
M
25.2932 70.9414
25.8688 72.679
26.6713 73.9136
28 75
27 57
24 55.8

M
32 76.5
35 77.8
34.5 64
31.5 63

M
39.5 79
42 79.8
42 68.8
39 68

M
47 81.5
49.5 82.3
49.5 72
47 71.4
z"/>

</svg>
