<?xml version="1.0" standalone="yes"?>
<svg xmlns="http://www.w3.org/2000/svg" width="107" height="88">
<path style="fill:#010101; stroke:none;" d="M0 0L0 88L107 88L107 0L103 0L103 31L102.999 39L102.941 41.9961L102.852 42.9846L102.397 44.8951L101.397 46.6096L100.682 47.3627L99.8519 48.034L97.9807 49.2037L95.9992 50.2431L93 51.7531L91.0046 52.7569L90.0193 53.2623L88.1481 54.3519L86.6034 55.6373L85.6034 57.213L85.1481 59.0432L85.0185 61.0039L84.9606 64C84.9145 65.0057 84.8379 66.0006 84.7145 67L84.1698 70.9753C84.0056 72.6493 84.0139 74.3203 84 76L82.3287 76.4136L81.841 76.5872L80.8395 76.9074L76.9985 78.3194L74 79.4244L65 83L61 84.5748L59 85.3002C57.3814 85.837 55.7246 86.3579 54 86.3457L52 86.1211L51 85.8665L49 85.1844L47 84.4236L44 83.3187L39 81.4236L34 79.5764L30.0015 78.054C28.732 77.5912 27.4523 77.1625 26.1605 76.7662L24.6713 76.3542L23 76C22.9861 74.3204 22.9944 72.6493 22.8302 70.9753L22.2855 67C22.1621 66.0006 22.0855 65.0057 22.0394 64L21.9815 61.0039L21.8519 59.0432L21.3966 57.213L20.3966 55.6373L18.8519 54.3519L16.9807 53.2623L15.9954 52.7569L14 51.7531L11.0008 50.2431L9.01929 49.2037L7.14815 48.034L6.3179 47.3627L5.60339 46.6096L4.60339 44.8951L4.14815 42.9846L4.05864 41.9961L4.00077 39L4 31L4 0L0 0z"/>
<path style="fill:#f8f9fb; stroke:none;" d="M4 0L4 32L4 38L4.00463 40.9992L4.05864 42.9846L4.14815 43.9568L4.60339 45.787L5.60339 47.3627L7.14815 48.6481L9.01929 49.7377L10.0046 50.2431L15.9954 53.2623L17.9414 54.3519L18.8519 54.966L19.6821 55.6373L20.9722 57.213L21.6821 59.0432L21.9414 61.0039L22.0394 65C22.0855 66.0057 22.162 67.0006 22.2855 68L22.5756 69.9954L22.8302 71.9552C22.9199 72.7423 22.96 73.5371 22.9846 74.3287L23 76L24.6713 76.534L28.0247 77.6952L33 79.5764L38 81.4236L41 82.5764L44 83.6813L46 84.4236L48 85.1883L50 85.9028L51 86.1998L52 86.4313L54 86.6304C55.7202 86.6359 57.3757 86.1541 59 85.6404L61 84.946L66 83L74 79.811L78.9753 77.9529L81.841 76.8372L82.3287 76.6304L84 76L84.0154 74.3287C84.04 73.5371 84.0801 72.7424 84.1698 71.9552L84.4244 69.9954L84.7145 68C84.838 67.0006 84.9145 66.0057 84.9606 65L85.0586 61.0039L85.3179 59.0432L86.0278 57.213L87.3179 55.6373L88.1481 54.966L89.0586 54.3519L91.0046 53.2623L96.9954 50.2431L97.9807 49.7377L99.8519 48.6481L101.397 47.3627L102.397 45.787L102.852 43.9568L102.941 42.9846L102.995 40.9992L103 38L103 32L103 0L86 0L80 0.00386047C78.3265 0.0244141 76.6554 0.0491867 75 0.325615C73.6377 0.553101 72.3119 0.933319 71 1.3588C69.6503 1.79654 68.3229 2.29895 67 2.81096L64.0008 4.01157L62.0154 4.86574L61.0432 5.32407L59.2137 6.36343L57.6528 7.63657L56.4568 9.18827L55.6535 10.8827L55.3835 11.8565L55.2292 12.3326L55 14L54.4151 12.3287L54.358 11.841L54.1605 10.8395L54.034 8.97531L54.0008 6.00463L54 0L23 0L19 0.000770569L17.0046 0.0192871L16.0185 0.0586395L14.1335 0.317902L13.2785 0.603394L12.5139 1.02778L11.858 1.60339L10.8897 3.14815L10.5579 4.05864L10.0995 6.00463L9.92438 7.00077L9.59028 9L9.16975 12L9.03935 14C8.98101 15.3305 8.99301 16.6686 9.00077 18C9.0105 19.6693 9.01143 21.3363 9.16975 23L9.57562 26C9.71463 26.999 9.84155 27.9932 9.91049 29C9.97887 29.9984 9.98727 30.9997 9.99614 32L10 36L10 46L8.80015 44.3287L8.56096 43.841L7.69676 41.9552L7.22377 39.9954L7.04398 38L7.00077 35L7 27C6.99678 24.9989 7.02005 22.9945 6.83025 21L6.28549 17C6.16309 16.0023 6.07341 15.0056 6.05401 14C6.03469 12.9982 6.07689 11.9974 6.17052 11C6.29637 9.65951 6.53712 8.33319 6.72917 7.00154L7.27469 3.16049L7.56713 1.6713L8 0L4 0z"/>
<path style="fill:#125296; stroke:none;" d="M9 46L9.58488 44.9136L9.64198 44.483L9.83951 43.679C9.94389 42.7828 9.95753 41.8817 9.98611 40.9815L10 37L9.99923 32C9.99637 30.6671 10.0016 29.3306 9.91049 28C9.74973 25.6525 9.25012 23.3475 9.08951 21C9.02128 20.0027 9.00463 18.9993 9.00463 18L9.03935 15L9.16975 13C9.28016 11.6585 9.53811 10.3269 9.75463 9C9.97161 7.6703 10.1892 6.33638 10.5 5.02469C10.9032 3.32316 11.472 1.66519 12 0L9.98843 0.314812L9.15741 0.604164L7.99923 1.60339L7.27701 3.14815L7.05864 4.05864L6.7338 6.00463L6.58025 7.00077C6.42951 7.99869 6.2655 8.99467 6.16975 10C6.07471 10.998 6.03038 11.9978 6.01852 13C6.00272 14.3349 6.04376 15.6706 6.16975 17L6.71451 21L6.91049 23L6.98534 25L7 29L7 35L7.04244 38.9985L7.20293 40.9753L7.57948 42.8395L8.10339 44.3287L9 46z"/>
<path style="fill:#c31a30; stroke:none;" d="M54 0C54.0002 1.99351 53.9912 3.98677 54.034 5.97993L54.1605 7.83951L54.358 8.84105L54.4151 9.3287L55 11L56.0563 9.95911L56.3619 9.58719L57.6481 8.25231L59.2145 6.95062C60.982 5.68643 63.0058 4.8434 65 4.01157C66.9215 3.21004 68.8638 2.44871 70.8395 1.79089L72.3287 1.35725L74 1L72.9136 0.415123L72.483 0.358025L71.679 0.160492C70.7828 0.0561066 69.8817 0.0424652 68.9815 0.0138855L65 0L54 0M55 44L55.9985 42.9136L56.75 41.679L57.5864 39.9414C58.1726 38.635 58.6929 37.2855 59.4136 36.044C59.9685 35.0879 60.5992 34.1925 61.3935 33.4182C62.1814 32.6502 63.0804 32.056 64.0432 31.5324C64.9926 31.0161 66.0061 30.6216 67.0008 30.2045L72 28.1991C72.9983 27.7969 74.0144 27.4121 74.9853 26.946C75.9676 26.4744 76.9439 25.9851 77.8302 25.3441C79.023 24.4816 80.1251 23.5088 81.2855 22.6049L83.0895 21.4097C84.0213 20.8674 85.0142 20.4379 86.0039 20.0154C87.3217 19.4529 88.6611 18.9342 90 18.4244L93.9954 16.9537L96.8395 15.9074L97.841 15.5872L98.3287 15.4136L100 15L100 2L98.3287 2.11343L96.8395 2.37963L94.9753 2.90432C93.6338 3.36261 92.3189 3.88168 91 4.40047L88 5.60031L84.0147 7.20448C83.0521 7.60947 82.0803 8.01304 81.1698 8.52855L79.4244 9.65509L76.8302 11.6898L74.9606 12.9406C73.705 13.6806 72.3508 14.2526 71 14.7924L67 16.3187L64.0008 17.4244C63.0096 17.8054 62.0118 18.1833 61.0432 18.6196C60.1261 19.0327 59.1962 19.4623 58.3904 20.0748L57.6381 20.6991L56.9699 21.4182L55.8395 23.108L55.3673 24.044L54.6381 26.0039L54.213 28C54.0613 28.9902 54.0393 30.0007 54.0154 31L54 34L54.034 38.9753L54.1605 40.8395L54.358 41.841L54.4151 42.3287L55 44z"/>
<path style="fill:#010101; stroke:none;" d="M54 10L54 13L54.5787 12.125L54.5787 11.8009L54.5787 10.875L54 10z"/>
<path style="fill:#125296; stroke:none;" d="M54 13L55 14L54 13M13 17L14.2855 21.0448L15.1165 24.0015L15.9282 26.9846L16.26 27.9568L17.1397 29.7863L18.4298 31.3511C19.1984 32.0805 20.114 32.6026 21.0401 33.0995L22.9645 34.0386L24.8302 35.0586L26.5756 36.3102C27.4335 36.9937 28.2602 37.7285 29.1698 38.3449L31.0394 39.4715L32.0147 39.946L35 41.1991L40 43.2006L41.9992 44.0154C42.9994 44.4475 44.0113 44.8671 44.9568 45.4136C45.9193 45.9699 46.8183 46.6053 47.6065 47.3935C48.3949 48.1819 49.0295 49.0807 49.5864 50.0432C50.1292 50.9813 50.5478 51.9856 50.9815 52.9761L52.1597 55.841L52.3688 56.3287L53 58L53.5849 56.9136L53.642 56.483L53.8395 55.679C53.9434 54.7851 53.9716 53.8803 53.9823 52.9815C54.0061 50.9756 53.9149 48.9625 53.4715 47C53.162 45.6305 52.6813 44.3104 52.1852 43L50.9992 40L49.7562 37.0154L49.2917 36.0432L48.1821 34.2137L46.7253 32.6489C45.9018 31.9332 44.9493 31.3957 43.9815 30.9051C43.0148 30.4151 42.0022 30.0181 41.0015 29.6049C39.2416 28.8783 37.4635 28.1883 35.6713 27.5455L34 27L34.4699 28.527L35.1605 29.6466L36.2747 30.7099L37.4468 31.4097L39 32L38 33L36 34L36.3125 35.625L36.6875 37.375L37 39L35.7608 37.5039L34.5548 36.5332L32.9298 35.865L32.1157 35.7323L30.6674 35.75L29 36L29.5278 34.3302L29.5802 32.8642L29.2577 31.1358L28.7407 29.6698L28 28L30 28.5417L30.5062 28.6852L32 29L31.6728 27.5123L31.0602 26.2801L29.9676 24.7948L28.517 23.3025L26.8256 21.9792C25.3331 20.9693 23.6578 20.2863 21.9992 19.6049C20.6879 19.0662 19.3629 18.5613 18.0247 18.0934L16.1605 17.5293L14.6713 17.1991L13 17z"/>
<path style="fill:#c31a30; stroke:none;" d="M93 22L92.8009 23.6713L92.466 25.1597L91.8519 27.0093L91.4275 27.9606L90.2971 29.7755L88.7755 31.3017C87.9272 31.9974 86.9426 32.4821 85.9846 33L84.9961 33.5131L83 34.6829C81.2712 35.8077 79.7348 37.2007 78 38.3164L76 39.4684L75 39.9452L72 41.1991L66.0008 43.6042C64.0432 44.418 61.9916 45.2064 60.3935 46.6489L58.9938 48.2137L58.4136 49.1049L57.9043 50.0432L57.0046 52.0039L56.1543 54C55.4707 55.6342 54.7598 57.2591 54.3897 59C54.0396 60.6463 54.0266 62.3252 54.0039 64L54 69L54 83L55.6713 82.7755L56.159 82.635L57.1605 82.4012L62 80.8835L65 79.9761L69 78.7199L72 77.8588L74.9961 76.956L76.956 76.1968L78.7716 75.1566L80.2577 73.7222L80.821 72.8665C81.4918 71.6985 81.7857 70.3293 81.8912 68.9992C82.0233 67.3345 81.9634 65.6665 82.0394 64C82.0848 63.0025 82.159 62.0154 82.2855 61.0247L82.5748 59.1605L82.7245 58.159L82.8171 57.6713L83 56L77 56L78.6713 55.0579L79.159 54.8495L80.1605 54.3696L83.0046 53.1991L90 50.3958C92.6838 49.2854 95.57 48.1558 97.4113 45.7863L98.4861 43.9568L98.8519 42.9846L99.3657 40.9992L99.5563 40L99.8295 38C99.9651 36.6708 99.9843 35.3347 99.9961 34L100 31L100 22L98.3457 22.5579L96.9545 22.8765L95.4252 22.9151L94.6327 22.7191L93 22z"/>
<path style="fill:#125296; stroke:none;" d="M54 43L54 47L54.5494 45.9753L54.5494 45.6204L54.679 45L54.5494 44.0247L54 43M24 54C24.0139 55.6796 24.0056 57.3507 24.1698 59.0247C24.3332 60.6905 24.6709 62.3336 24.8302 64C24.9891 65.6607 24.9872 67.3298 25.0563 68.9954L25.2932 70.9414L25.8688 72.679L26.6713 73.9136L28 75L27.9583 73.3287L27.8302 71.8395C27.5926 69.8902 27.2239 67.9615 27.0895 66C26.8879 63.057 27.1276 60.0996 26.8395 57.1605L26.5849 55.6713L26 54L24 54M32 63L32 77L35 77L34.9961 71.9753C34.9895 70.9871 34.9912 69.99 34.9059 69.0046L34.6605 67.0586L34.4514 66.1489L33.8364 64.6103L33.115 63.6543L32 63M39 68L39.0417 69.6713L39.1698 71.1605L39.8302 75.8395L39.9583 77.3287L40 79L42 79L42 68L39 68M47 72L47.034 77L47.1605 78.841L47.358 79.841L47.4151 80.3287L48 82L48.5849 80.9136L48.642 80.483L48.8395 79.679C48.943 78.792 48.9634 77.8976 48.9861 77.0062C49.0286 75.3392 48.9998 73.6673 49 72L47 72z"/>
</svg>
