<?xml version="1.0" standalone="yes"?>
<svg xmlns="http://www.w3.org/2000/svg" width="1440" height="195" viewBox="0 34 2200 298">
<!-- Output size: 144 x 19.5 LDU. orig 2200 x 366 => new height = 2200*195/1440=298 in viewbox  -->
<rect style="fill:#FFF;" x="0" y="34" width="2200" height="298" />

<path style="fill:#030303; stroke:none;" d="
M 72 117
L 72 254
L 99 254
L 99 221
L 253 221
L 299 221
C 306.274 221 315.041 222.311 322 219.891
C 327.808 217.872 332.987 213.09 334.467 207
C 336.13 200.158 335 192.008 335 185
L 335 143
C 335 134.555 335.326 126.385 327.907 120.638
C 321.653 115.795 313.408 117 306 117
L 259 117
L 72 117M384 117.649
C 372.365 121.164 371 132.709 371 143
L 371 220
C 371 230.479 369.31 243.281 379.015 250.197
C 385.227 254.623 392.769 254 400 254
L 440 254
L 565 254
L 602 254
C 608.894 254 616.384 254.751 623 252.387
C 634.739 248.191 635 236.433 635 226
L 635 149
C 635 138.38 636.749 125.651 625.985 119.367
C 620.063 115.91 612.583 117 606 117
L 564 117
L 440 117
L 403 117
C 397.024 117 389.77 115.906 384 117.649M670 117
L 670 254
L 696 254
L 696 221
L 824 221
L 865 221
C 871.748 221 879.296 220.049 885.957 221.148
C 890.46 221.891 891.93 226.359 893.753 230
C 897.128 236.742 900.341 247.13 905.814 252.397
C 907.928 254.43 911.307 253.994 914 254
L 935 254
C 930.154 242.361 923.867 231.152 918 220
C 925.327 218.673 930.778 213.324 932.471 206
C 934.548 197.012 933 186.2 933 177
C 933 162.691 934.706 147.18 932.812 133
C 931.938 126.457 927.191 120.417 920.999 118.133
C 913.614 115.409 903.769 117 896 117
L 845 117
L 670 117M980 227
L 980 254
L 1138 254
L 1187 254
C 1195.33 254 1204.83 255.253 1213 253.481
C 1227.44 250.348 1228 238.267 1228 226
L 1228 200
C 1228 192.044 1229.25 183.226 1222.89 177.214
C 1217.27 171.899 1210.22 172 1203 172
L 1171 172
L 1056 172
L 1025 172
C 1020.82 172 1014.95 173.005 1011.19 170.821
C 1004.13 166.722 1005.04 147.764 1012.04 144.028
C 1014.96 142.475 1018.82 143 1022 143
L 1043 143
L 1228 143
L 1228 117
L 1069 117
L 1019 117
C 1011.08 117 1001.74 115.651 994 117.394
C 988.118 118.717 983.41 123.388 981.479 129
C 979.597 134.472 980 140.309 980 146
L 980 173
C 980.003 180.399 980.493 188.222 986.304 193.61
C 991.593 198.513 998.314 198 1005 198
L 1037 198
L 1153 198
L 1184 198
C 1188.45 198 1193.99 197.242 1197.89 199.858
C 1204.02 203.965 1204.43 221.876 1197.79 225.821
C 1194.74 227.629 1190.39 227 1187 227
L 1163 227
L 980 227M1525 254
L 1525 227
L 1364 227
L 1323 227
C 1318.21 227 1310.38 228.459 1306.39 225.258
C 1301.46 221.295 1303 212.544 1303 207
L 1303 160
C 1303 153.609 1302.26 145.581 1310 143.434
C 1316.6 141.605 1325.19 143 1332 143
L 1377 143
L 1525 143
L 1525 117
L 1351 117
L 1306 117
C 1299.21 117 1290.95 115.715 1285 119.703
C 1274.96 126.443 1277 138.501 1277 149
L 1277 224
C 1277 234.465 1275.71 246.566 1287 251.811
C 1294.31 255.205 1303.16 254 1311 254
L 1358 254
L 1525 254M1565 117
L 1565 254
L 1591 254
L 1591 214
C 1591 210.12 1589.59 202.614 1592.6 199.603
C 1595.48 196.728 1602.31 198 1606 198
L 1642 198
L 1788 198
L 1788 254
L 1815 254
L 1815 117
L 1788 117
L 1788 172
L 1591 172
L 1591 117
L 1565 117M1856 117
L 1856 254
L 2121 254
L 2121 227
L 1883 227
L 1883 198
L 2121 198
L 2121 172
L 1883 172
L 1883 143
L 2121 143
L 2121 117
L 1856 117
z"/>

<path style="fill:#fefefe; stroke:none;" d="
M 99 143
L 99 194
L 255 194
L 293 194
C 297.625 194 303.878 195.048 306.991 190.772
C 309.427 187.425 308.999 182.906 309 179
C 309.003 170.211 310.019 160.71 308.811 152
C 308.244 147.913 306.065 144.76 301.995 143.573
C 295.667 141.726 287.547 143 281 143
L 238 143
L 99 143M402.059 144.028
C 396.367 147.145 398 155.601 398 161
L 398 208
C 398 213.028 396.14 222.71 401.228 225.821
C 404.67 227.925 410.146 227 414 227
L 445 227
L 559 227
L 592 227
C 596.097 227 602.119 228.054 605.772 225.821
C 610.704 222.805 609 213.869 609 209
L 609 161
C 609 155.825 610.839 146.3 604.891 143.742
C 600.683 141.932 594.49 143 590 143
L 559 143
L 451 143
L 417 143
C 412.575 143 406.068 141.832 402.059 144.028M696 194
L 783 194
L 840 194
L 884 194
C 889.153 194 897.295 195.517 901.941 192.972
C 906.126 190.681 905.991 186.158 906 182
L 906 156
C 905.993 152.059 906.352 147.464 902.772 144.858
C 899.276 142.314 894.064 143 890 143
L 860 143
L 744 143
L 710 143
C 706.672 143 700.385 141.825 697.603 144.028
C 694.649 146.368 696 153.685 696 157
L 696 194
z"/>

</svg>
