<?xml version="1.0" standalone="yes"?>
<svg xmlns="http://www.w3.org/2000/svg" width="920" height="543">
<!-- Green circle -->
<path style="fill:#02955a; stroke:none;" d="M71 0.428223C34.9569 5.58954 6.97816 31.9883 0.614969 68C-1.53392 80.1614 0 93.6675 0 106L0 179L0 405L0 449C0 459.376 -0.618129 469.805 1.66512 480C5.57065 497.439 16.0262 513.677 30 524.714C54.2878 543.897 81.824 542 111 542L243 542L658 542L789 542C811.266 542 836.22 545.128 858 540.113C890.849 532.549 916.465 503.643 919.829 470C921.074 457.557 920 444.505 920 432L920 359L920 137C920 99.6659 926.781 57.1874 899.826 27C895.419 22.064 890.458 17.7588 885 14.0286C860.694 -2.58179 832.992 0 805 0L665 0L266 0L137 0L95 0C87.1019 0 78.8307 -0.693115 71 0.428223z"/>

<!-- White outer -->
<path style="fill:#FFF; stroke:none;" d="M849 0C857.284 3.7204 866.644 4.36517 875 8.60492C897.244 19.8914 918.445 44.9698 919 71C921.599 64.8062 920 55.6858 920 49L920 0L849 0M73 22.4252C49.8647 25.5834 28.9754 42.8795 23.3395 66C19.7466 80.7393 22 97.9072 22 113L22 397L22 443C22 451.854 21.1446 461.213 22.2894 470C24.1657 484.403 32.668 498.413 44 507.331C63.8081 522.919 88.3684 520 112 520L250 520L659 520L787 520L826 520C835.356 520 844.81 520.442 854 518.321C860.065 516.921 865.84 514.067 871 510.644C875.231 507.838 879.322 504.79 882.711 500.985C902.577 478.68 898 448.625 898 421L898 137C898 100.365 906.673 54.427 871 31.101C851.008 18.0285 824.69 22 802 22L657 22L266 22L138 22C116.83 22 93.9718 19.5623 73 22.4252z"/>

<!-- PRO -->
<path style="fill:#02955a; stroke:none;" d="M704 68.4244C684.498 70.9926 666.198 74.2004 649 84.4529C625.821 98.2708 613.932 121.796 607.371 147C597.819 183.699 598 222.328 598 260L598 297C598 333.072 597.308 370.371 608.924 405C615.231 423.799 624.589 440.848 641 452.841C648.318 458.189 656.531 462.389 665 465.575C675.173 469.402 687.144 472.145 698 472.91C718.395 474.348 738.68 474.514 759 471.841C769.084 470.514 779.66 467.566 789 463.573C849.037 437.901 851 363.95 851 308C851 258.968 852.834 209.5 844.753 161C839.165 127.459 823.73 95.722 792 80.2592C779.297 74.0685 765.897 71.3178 752 69.4252C736.765 67.3504 719.291 66.4108 704 68.4244M69 77L69 465L141 465L141 303C182.869 303 230.821 308.087 267 282.561C308.968 252.95 314.342 187.796 301.421 142C296.131 123.252 286.662 105.451 271 93.4283C248.107 75.8543 220.286 77 193 77L69 77M320 77L320 465L392 465L392 298C411.596 298 431.609 296.715 451 299.92C459.656 301.35 468.936 302.859 475.961 308.529C490.324 320.123 491 343.112 491 360C491 395.48 490.987 430.365 499 465L579 465C578.97 456.392 573.491 450.991 571.039 443C567.56 431.661 566.294 419.771 565.17 408C563.3 388.429 563 368.67 563 349C563 335.014 564.009 320.662 560.395 307C554.048 283.006 532.835 266.069 508 265L508 263C532.924 262.794 551.515 243.065 559.68 221C563.844 209.746 565.216 197.899 566.089 186C568.377 154.786 565.028 122.185 540 100.184C515.892 78.9922 480.43 77 450 77L320 77z"/>

<!-- o o O -->
<path style="fill:#FFF; stroke:none;" d="M722 126.439C714.996 127.187 708.503 127.905 702 130.901C687.33 137.66 679.472 152.961 675.884 168C673.744 176.974 673.696 185.898 672.83 195C670.416 220.371 672 246.498 672 272C672 295.984 671.274 320.102 672.911 344C673.72 355.819 674.163 367.48 677.428 379C685.154 406.257 707.943 418.097 735 414.816C761.447 411.608 771.45 386.027 774.714 363C779.356 330.262 777 296.028 777 263C777 243.948 776.871 224.987 776.039 206C775.587 195.673 775.49 185.177 773.331 175C767.935 149.563 751.831 123.251 722 126.439M141 134L141 246C155.98 246 171.102 246.659 186 245.169C195.152 244.254 204.127 243.127 212 237.895C231.406 224.998 232 200.867 232 180C232 165.885 229.411 150.502 217 141.8C208.803 136.053 199.529 135.741 190 134.83C173.78 133.28 157.305 134 141 134M392 134L392 241L434 241C447.068 241 459.498 241.306 470.999 234.049C491.539 221.088 493.105 191.67 490.282 170C488.805 158.661 485.083 147.075 474.999 140.549C465.182 134.195 452.329 134 441 134L392 134M919 472C918.231 481.661 914.866 491.649 909.988 500C896.703 522.745 874.238 538.491 848 541.714C835.638 543.232 822.451 542 810 542L749 542L191 542L108 542C90.1962 542 72.2003 543.445 55 537.971C28.5511 529.555 2.25385 501.759 1 473C-1.59909 479.194 0 488.314 0 495L0 543L920 543L920 494C920 487.314 921.599 478.194 919 472z"/>
</svg>
