<svg id="Layer_1" xmlns="http://www.w3.org/2000/svg" width="300" height="300">
<path class="st3" d="
M10 280
c0-1.4.1-2.9.4-4.3 2.5-8.3 5.1-16.5 7.8-25.1 2.4.1 4.7.4 7.1.7 18.6 4.3 35-.4 49.4-12.3 7.9-6.6 14.7-14.5 20.1-23.3 3-4.8 4-9.5 2.5-15.1-6.2-24.2-12-48.4-18-72.6-8.8-35.2-17.6-70.3-26.4-105.4-.6-2.2-.7-4.6-1.1-6.8 7.5-1.6 39.8-1.7 49.3-.1 9.9 49.3 19.8 98.7 29.8 148.3 3.8.5 4.1-2.9 5.4-4.9 21.2-33.5 42.3-67 63.3-100.5
l 27.5-43.8
c 7.3 0 14.9-.1 22.5-.1
h 22
c .9 4.3-2.2 6.5-3.9 9-23.9 36.1-47.9 72.1-71.9 108.1-18.1 27.2-36.1 54.3-54.2 81.5-9.6 14.4-19.5 28.6-32 40.8-14.9 14.6-32.3 24.6-53.1 27.6-15.3 2.3-31.2 1.7-46.5-1.7z
"/>
</svg>