<svg id="Layer_1" xmlns="http://www.w3.org/2000/svg" viewBox="0 0 290 74" width="290" height="74">
<g transform="matrix(0.04 0 0 0.04 5 11)">
<path class="st1" d="
M3308.7 894.3c10.3-23.6 20.2-46.4 30.3-69.7 92.1 38.5 185.3 43 279.4 11.5 78.7-26.4 143-73.4 191.8-140.7 98.1-135.6 99-316.6 2.4-453.6-53.2-75.6-124.9-125.8-213.6-150.9-88.4-25-175.1-18-260.2 17.8l-30.1-69.5c1.7-1.1 3.6-2.2 5.4-3.1 67.7-28.2 140.9-40.2 214-34.9 56.6 3.8 112 18.2 163.4 42.3 131.3 61.5 225.4 178 258 319.8 6.8 29.2 10.6 59 11.3 89 2.8 133.3-42.2 248.1-135.5 343.1-67.7 69-150.2 111.3-245.2 129.7-38.9 7.5-78 9.6-117.4 7.1-51.6-3.3-102.2-15.3-149.8-35.6-1.1-.5-2.2-1.2-4.2-2.3
z
"/>

</g>
</svg>