<svg xmlns="http://www.w3.org/2000/svg" 
 width="282" 
 height="94"
 viewBox="-8 -5 120 40">
<rect x="-8" y="-5" width="120" height="40" fill="#0F0" />
<g>
<g id="a">
<polygon class="cls-1" points="0 5.65 15.96 5.65 0.01 23.89 0.01 29.51 24.12 29.51 24.12 23.89 8.17 23.89 24.12 5.65 24.12 0 0.01 0 0 5.65"/>
<polygon class="cls-1" points="25.27 0 25.28 29.5 49.4 29.51 49.41 23.89 30.93 23.89 30.92 16.67 47.73 16.67 47.73 11.03 30.93 11.04 30.92 5.66 49.4 5.66 49.41 0 25.27 0"/>
<polygon class="cls-1" points="70.57 21.11 57.49 0 50.41 0 50.42 29.51 56.08 29.51 56.07 7.99 69.45 29.51 76.23 29.51 76.23 0 70.57 0 70.57 21.11"/>
<polygon class="cls-1" points="104 0 77.48 0 77.47 5.66 87.96 5.64 87.96 29.51 93.57 29.51 93.57 5.64 104 5.66 104 0"/>
</g>
<use href="#a" fill="#F00" x="-1" y="-1" />
</g>
</svg>